<?xml version="1.0" encoding="UTF-8"?> <svg xmlns="http://www.w3.org/2000/svg" width="74" height="74" viewBox="0 0 74 74" fill="none"><circle cx="37" cy="37" r="37" fill="url(#paint0_linear)"></circle><g clip-path="url(#clip0)"><path d="M17.6267 54.7639H56.3733C56.7205 54.7639 57 54.4826 57 54.1373V34.4634C57 34.2953 56.9324 34.1345 56.8118 34.0157L50.355 27.6649C50.1101 27.4255 49.7191 27.4255 49.4761 27.6649L43.4578 33.5827L37.4394 27.6649C37.1964 27.4255 36.8036 27.4255 36.5606 27.6649L30.2864 33.8367H17.6285C17.2814 33.8367 17.0018 34.1181 17.0018 34.4634V54.1373C17 54.4844 17.2795 54.7639 17.6267 54.7639ZM55.7466 53.5106H18.2534V35.0901H30.5422C30.7067 35.0901 30.8638 35.0261 30.9826 34.911L37.0009 28.9931L43.0174 34.9092C43.2623 35.1485 43.6533 35.1485 43.8963 34.9092L49.9146 28.9913L55.7466 34.7247V53.5106Z" fill="white"></path><path d="M26.2962 35.0623C26.6433 35.0623 26.9229 34.781 26.9229 34.4357V20.6267C26.9229 20.2795 26.6415 20 26.2962 20H20.2467C19.8996 20 19.6201 20.2814 19.6201 20.6267V34.4265C19.6201 34.7737 19.9014 35.0532 20.2467 35.0532C20.5939 35.0532 20.8734 34.7718 20.8734 34.4265V21.2534H25.6695V34.4357C25.6695 34.7828 25.9509 35.0623 26.2962 35.0623Z" fill="white"></path><path d="M49.2094 49.1112H52.2478C52.595 49.1112 52.8745 48.8298 52.8745 48.4845V43.1111C52.8745 42.7639 52.5931 42.4844 52.2478 42.4844H49.2094C48.8623 42.4844 48.5827 42.7657 48.5827 43.1111V48.4845C48.5827 48.8298 48.8623 49.1112 49.2094 49.1112ZM51.6193 47.856H49.8361V43.7359H51.6193V47.856V47.856Z" fill="white"></path><path d="M42.3452 49.1112H45.3836C45.7307 49.1112 46.0103 48.8298 46.0103 48.4845V43.1111C46.0103 42.7639 45.7289 42.4844 45.3836 42.4844H42.3452C41.998 42.4844 41.7185 42.7657 41.7185 43.1111V48.4845C41.7185 48.8298 41.998 49.1112 42.3452 49.1112ZM44.7551 47.856H42.9718V43.7359H44.7551V47.856Z" fill="white"></path><path d="M35.4809 49.1112H38.5193C38.8665 49.1112 39.146 48.8298 39.146 48.4845V43.1111C39.146 42.7639 38.8646 42.4844 38.5193 42.4844H35.4809C35.1338 42.4844 34.8542 42.7657 34.8542 43.1111V48.4845C34.8542 48.8298 35.1338 49.1112 35.4809 49.1112ZM37.8926 47.856H36.1094V43.7359H37.8926V47.856Z" fill="white"></path><path d="M28.6166 49.1112H31.6551C32.0022 49.1112 32.2817 48.8298 32.2817 48.4845V43.1111C32.2817 42.7639 32.0004 42.4844 31.6551 42.4844H28.6166C28.2695 42.4844 27.99 42.7657 27.99 43.1111V48.4845C27.99 48.8298 28.2713 49.1112 28.6166 49.1112ZM31.0284 47.856H29.2452V43.7359H31.0284V47.856Z" fill="white"></path><path d="M21.7524 49.1112H24.7908C25.1379 49.1112 25.4175 48.8298 25.4175 48.4845V43.1111C25.4175 42.7639 25.1361 42.4844 24.7908 42.4844H21.7524C21.4052 42.4844 21.1257 42.7657 21.1257 43.1111V48.4845C21.1257 48.8298 21.4071 49.1112 21.7524 49.1112ZM24.1641 47.856H22.3791V43.7359H24.1641V47.856Z" fill="white"></path></g><defs><linearGradient id="paint0_linear" x1="74" y1="74" x2="3.18049" y2="70.6003" gradientUnits="userSpaceOnUse"><stop stop-color="#F7625F"></stop><stop offset="1" stop-color="#D94FBA"></stop></linearGradient><clipPath id="clip0"><rect width="40" height="34.7636" fill="white" transform="matrix(-1 0 0 1 57 20)"></rect></clipPath></defs></svg> 