<?xml version="1.0" encoding="UTF-8"?> <svg xmlns="http://www.w3.org/2000/svg" width="74" height="74" viewBox="0 0 74 74" fill="none"><circle cx="37" cy="37" r="37" fill="url(#paint0_linear)"></circle><g clip-path="url(#clip0)"><path d="M47.9144 17.7217H29.4022C29.2078 17.7217 27.4582 18.0736 28.2542 18.0736C28.2542 18.268 29.2078 18.4256 29.4022 18.4256H47.9144C48.1249 18.4256 48.2962 18.5969 48.2962 18.8074V22.2778L44 22.2791C43.8056 22.2791 44.5 22.4354 44.5 22.6297C44.5 23.001 43.5 23.001 45.2905 22.9817H48.2962V31.0181H28.6522C27.5 31.0181 28.3002 31.1757 28.3002 31.37C28.3002 31.5644 27.5 31.722 28.6522 31.722H48.2961V35.1924C48.2961 35.4029 48.1249 35.5742 47.9144 35.5742H26.0856C25.8751 35.5742 25.7039 35.4029 25.7039 35.1924V31.722H28.3056C28.3056 31.722 28.5 31.1953 28.5 31.001C28.4995 31.0191 29 31.0181 27.1523 31.0181H25.7039V22.9816H44.5C44.6944 22.9816 44.5 22.8241 44.5 22.6297C44.5 22.4354 45.1673 22.2777 43.7905 22.2777H25.7039V18.8074C25.7039 18.5969 25.8751 18.4256 26.0856 18.4256H29.4022C29.5965 18.4256 28.2542 18.268 28.2542 18.0736C28.2542 17.8793 29.5032 17.7346 29.3089 17.7346L26.0856 17.7217C25.487 17.7217 25 18.2087 25 18.8074V35.1924C25 35.791 25.487 36.2781 26.0856 36.2781H47.9144C48.513 36.2781 49 35.7911 49 35.1924V18.8074C49 18.2087 48.513 17.7217 47.9144 17.7217Z" fill="#FFECEC"></path><path d="M33.5454 26.9986C33.5454 28.9035 35.0952 30.4532 37 30.4532C38.9049 30.4532 40.4547 28.9035 40.4547 26.9986C40.4547 25.0937 38.9049 23.5439 37 23.5439C35.0952 23.5439 33.5454 25.0937 33.5454 26.9986ZM39.7508 26.9986C39.7508 28.5153 38.5168 29.7493 37 29.7493C35.4833 29.7493 34.2493 28.5153 34.2493 26.9986C34.2493 25.4818 35.4833 24.2478 37 24.2478C38.5168 24.2478 39.7508 25.4818 39.7508 26.9986Z" fill="#FFECEC"></path><path d="M36.648 25.2064V25.7168C36.5396 25.7466 36.4369 25.7896 36.3415 25.8442L35.9803 25.483C35.8428 25.3456 35.62 25.3456 35.4826 25.483C35.3451 25.6205 35.3451 25.8433 35.4826 25.9807L35.8438 26.3419C35.7892 26.4374 35.7461 26.5401 35.7164 26.6484H35.206C35.0116 26.6484 34.854 26.806 34.854 27.0003C34.854 27.1947 35.0116 27.3523 35.206 27.3523H35.7163C35.7461 27.4606 35.7892 27.5633 35.8437 27.6588L35.4825 28.02C35.3451 28.1574 35.3451 28.3803 35.4825 28.5177C35.5512 28.5864 35.6413 28.6208 35.7314 28.6208C35.8214 28.6208 35.9115 28.5864 35.9802 28.5177L36.3414 28.1565C36.4369 28.211 36.5396 28.2541 36.6479 28.2839V28.7942C36.6479 28.9886 36.8055 29.1462 36.9999 29.1462C37.1942 29.1462 37.3518 28.9886 37.3518 28.7942V28.2839C37.4601 28.2541 37.5628 28.211 37.6583 28.1565L38.0195 28.5177C38.0882 28.5864 38.1783 28.6208 38.2683 28.6208C38.3584 28.6208 38.4485 28.5864 38.5172 28.5177C38.6546 28.3802 38.6546 28.1574 38.5172 28.02L38.156 27.6588C38.2106 27.5633 38.2536 27.4606 38.2834 27.3523H38.7938C38.9881 27.3523 39.1457 27.1947 39.1457 27.0003C39.1457 26.806 38.9881 26.6484 38.7938 26.6484H38.2834C38.2536 26.5401 38.2106 26.4374 38.156 26.3419L38.5172 25.9807C38.6546 25.8433 38.6546 25.6204 38.5172 25.483C38.3797 25.3456 38.1569 25.3456 38.0195 25.483L37.6583 25.8442C37.5628 25.7896 37.4601 25.7466 37.3518 25.7168V25.2064C37.3518 25.0121 37.1942 24.8545 36.9999 24.8545C36.8055 24.8545 36.648 25.0121 36.648 25.2064V25.2064ZM37.6272 27.0004C37.6272 27.3463 37.3458 27.6277 36.9999 27.6277C36.654 27.6277 36.3726 27.3463 36.3726 27.0004C36.3726 26.6545 36.654 26.3731 36.9999 26.3731C37.3458 26.3731 37.6272 26.6545 37.6272 27.0004V27.0004Z" fill="#FFECEC"></path></g><path d="M22.0833 43.4284L21.5511 43.296L21.2622 42.8409C21.2568 42.8321 21.2494 42.8247 21.2406 42.8192C21.2092 42.7992 21.1675 42.8083 21.1474 42.8396C21.1472 42.8401 21.1469 42.8405 21.1467 42.8409L20.8698 43.296L20.3473 43.4284C20.3375 43.431 20.3284 43.436 20.3208 43.4428C20.2954 43.469 20.2954 43.5105 20.3208 43.5367L20.6651 43.9509L20.629 44.4902C20.627 44.4997 20.627 44.5096 20.629 44.5191C20.6424 44.5535 20.6811 44.5707 20.7157 44.5576L21.2165 44.3578L21.7125 44.5552C21.7461 44.5712 21.7863 44.557 21.8023 44.5233C21.8073 44.513 21.8095 44.5016 21.8088 44.4902L21.7727 43.9509L22.1145 43.5391C22.1225 43.5311 22.1283 43.5211 22.1314 43.5102C22.1406 43.4744 22.1191 43.4378 22.0833 43.4284Z" fill="#FFECEC"></path><path d="M19.0735 40.7736L18.5462 40.6509L18.2573 40.1958C18.2371 40.1646 18.1953 40.1556 18.1641 40.1759C18.1561 40.181 18.1493 40.1879 18.1441 40.1958L17.8552 40.6509L17.3327 40.7833C17.2966 40.7921 17.2743 40.8285 17.2832 40.8647C17.2856 40.8746 17.2902 40.8838 17.2967 40.8916L17.6434 41.3057L17.6073 41.8451C17.6048 41.8822 17.6329 41.9143 17.6701 41.9168C17.6798 41.9175 17.6896 41.916 17.6988 41.9125L18.1996 41.7126L18.7028 41.9077C18.7139 41.9105 18.7254 41.9105 18.7365 41.9077C18.7736 41.9051 18.8017 41.8729 18.7991 41.8358C18.7991 41.8357 18.7991 41.8356 18.7991 41.8354L18.763 41.2961L19.1049 40.8844C19.1128 40.8763 19.1186 40.8664 19.1217 40.8555C19.1308 40.8196 19.1093 40.7831 19.0735 40.7736Z" fill="#FFECEC"></path><path d="M22.0742 40.7776L21.5517 40.6524L21.2628 40.1973C21.2574 40.1885 21.25 40.1811 21.2411 40.1757C21.2098 40.1556 21.1681 40.1647 21.148 40.1961C21.1478 40.1965 21.1475 40.1969 21.1472 40.1973L20.8703 40.6524L20.3479 40.7848C20.3117 40.7936 20.2895 40.8301 20.2983 40.8663C20.3007 40.8761 20.3053 40.8854 20.3118 40.8932L20.6561 41.3073L20.62 41.8466C20.618 41.8561 20.618 41.866 20.62 41.8755C20.6334 41.9099 20.6721 41.9272 20.7067 41.914L21.2075 41.7142L21.7035 41.9116C21.7145 41.9145 21.7261 41.9145 21.7372 41.9116C21.7743 41.9091 21.8024 41.8769 21.7998 41.8398C21.7998 41.8396 21.7998 41.8395 21.7998 41.8394L21.7637 41.3001L22.1055 40.8884C22.1135 40.8803 22.1193 40.8704 22.1224 40.8595C22.1315 40.8236 22.11 40.7871 22.0742 40.7776Z" fill="#FFECEC"></path><path d="M35.5979 38.3184C35.5971 38.3184 35.5963 38.3184 35.5955 38.3184H12.4045C12.1811 38.3184 12 38.4995 12 38.7229V53.2774C12 53.5008 12.1811 53.6819 12.4045 53.6819H35.5955C35.8189 53.6819 36 53.5008 36 53.2774V38.7253C36.0013 38.5019 35.8213 38.3197 35.5979 38.3184ZM12.809 39.1298H23.5955V45.5969H12.809V39.1298ZM35.2006 52.8729H12.809V51.2694H35.2006V52.8729ZM35.2006 50.4652H12.809V48.8376H35.2006V50.4652ZM35.2006 48.0334H12.809V46.4058H35.2006V48.0334ZM24.4045 45.6017V43.9741H35.1886L35.2006 45.6017H24.4045V45.6017ZM24.4045 43.1699V41.5447H35.1886L35.2006 43.1699H24.4045ZM24.4045 40.7381V39.1298H35.1886L35.2006 40.7381H24.4045Z" fill="#FFECEC"></path><path d="M16.0637 43.4308L15.5412 43.296L15.2547 42.8409C15.2493 42.8321 15.2418 42.8247 15.2331 42.8192C15.2017 42.7992 15.16 42.8083 15.1399 42.8396C15.1397 42.8401 15.1394 42.8405 15.1392 42.8409L14.8502 43.296L14.3278 43.4284C14.318 43.431 14.3089 43.436 14.3013 43.4428C14.2759 43.469 14.2759 43.5105 14.3013 43.5367L14.6456 43.9509L14.6095 44.4902C14.607 44.5273 14.6351 44.5595 14.6722 44.5619C14.682 44.5626 14.6918 44.5611 14.701 44.5576L15.2018 44.3578L15.6929 44.5576C15.7265 44.5736 15.7668 44.5594 15.7828 44.5258C15.7877 44.5154 15.79 44.504 15.7892 44.4926L15.7531 43.9533L16.095 43.5415C16.103 43.5335 16.1087 43.5236 16.1119 43.5127C16.121 43.4768 16.0995 43.4402 16.0637 43.4308Z" fill="#FFECEC"></path><path d="M16.0638 40.7736L15.5413 40.6509L15.2548 40.1958C15.2346 40.1646 15.1928 40.1556 15.1616 40.1759C15.1536 40.181 15.1468 40.1879 15.1417 40.1958L14.8503 40.6509L14.3278 40.7833C14.2917 40.7921 14.2695 40.8285 14.2783 40.8647C14.2807 40.8746 14.2853 40.8838 14.2918 40.8916L14.6361 41.3057L14.6096 41.8451C14.6071 41.8822 14.6353 41.9143 14.6724 41.9168C14.6821 41.9175 14.692 41.916 14.7011 41.9125L15.2019 41.7126L15.6931 41.9077C15.7042 41.9105 15.7157 41.9105 15.7268 41.9077C15.7639 41.9051 15.792 41.8729 15.7894 41.8358C15.7894 41.8357 15.7894 41.8356 15.7894 41.8354L15.7533 41.2961L16.0952 40.8844C16.1031 40.8763 16.1089 40.8664 16.112 40.8555C16.1211 40.8196 16.0996 40.7831 16.0638 40.7736Z" fill="#FFECEC"></path><path d="M19.0739 43.4308L18.5466 43.296L18.2577 42.8409C18.2522 42.8321 18.2448 42.8247 18.236 42.8192C18.2046 42.7992 18.1629 42.8083 18.1429 42.8396C18.1426 42.8401 18.1423 42.8405 18.1421 42.8409L17.8532 43.296L17.3307 43.4284C17.3209 43.431 17.3118 43.436 17.3042 43.4428C17.2788 43.469 17.2788 43.5105 17.3042 43.5367L17.6485 43.9509L17.6124 44.4902C17.6099 44.5273 17.638 44.5595 17.6752 44.5619C17.6849 44.5626 17.6947 44.5611 17.7039 44.5576L18.2047 44.3578L18.7031 44.5576C18.7367 44.5736 18.7769 44.5594 18.793 44.5258C18.7979 44.5154 18.8001 44.504 18.7994 44.4926L18.7633 43.9533L19.1052 43.5415C19.1131 43.5335 19.1189 43.5236 19.122 43.5127C19.1312 43.4768 19.1097 43.4402 19.0739 43.4308Z" fill="#FFECEC"></path><g clip-path="url(#clip1)"><path d="M60.8969 38.1338H39.1031C38.4949 38.1338 38 38.6286 38 39.2369V52.764C38 53.3723 38.4949 53.8671 39.1031 53.8671H60.8969C61.5052 53.8671 62 53.3723 62 52.764V39.2369C62 38.6286 61.5051 38.1338 60.8969 38.1338ZM61.2969 52.764C61.2969 52.9846 61.1174 53.164 60.8969 53.164H54.2344V41.4914C54.2344 40.501 54.077 40.9215 53.8828 40.9215C53.6886 40.9215 53.5 40.001 53.5312 41.4914V53.164H46.4688V52.0126C46.5 51.001 46.3515 50.1586 46 51.001C45.6484 50.2011 45.7656 51.8184 45.7656 52.0126V53.164H39.1031C38.8825 53.164 38.7031 52.9846 38.7031 52.7641V39.2369C38.7031 39.0163 38.8826 38.8369 39.1031 38.8369H45.7656V50.5096C45.7656 52.206 45.8058 52.501 46 52.501C46.3828 53.6408 46.4687 50.7037 46.4687 50.5096V38.8369H53.5312V39.9884C53.5 41.501 53.6886 41.001 53.8828 41.001C54.077 41.001 54.2344 41.8815 54.2344 39.9884V38.8369H60.8969C61.1174 38.8369 61.2968 39.0163 61.2968 39.2369L61.2969 52.764Z" fill="#FFECEC"></path></g><defs><linearGradient id="paint0_linear" x1="74" y1="74" x2="3.18049" y2="70.6003" gradientUnits="userSpaceOnUse"><stop stop-color="#F7625F"></stop><stop offset="1" stop-color="#D94FBA"></stop></linearGradient><clipPath id="clip0"><rect width="24" height="24" fill="white" transform="translate(25 15)"></rect></clipPath><clipPath id="clip1"><rect width="24" height="24" fill="white" transform="translate(38 34)"></rect></clipPath></defs></svg> 