<?xml version="1.0" encoding="UTF-8"?> <svg xmlns="http://www.w3.org/2000/svg" width="74" height="74" viewBox="0 0 74 74" fill="none"><circle cx="37" cy="37" r="37" fill="url(#paint0_linear)"></circle><g clip-path="url(#clip0)"><path d="M48.3738 42.5917C48.8086 41.7163 49.1216 40.8178 49.3419 39.9134L56.4202 38.1569L56.1071 33.2931L48.855 32.4583C48.1883 30.6902 47.1274 29.0728 45.7187 27.7395L47.7419 20.7366L43.3825 18.5801L39.0405 24.4352C37.1274 24.1221 35.197 24.2612 33.3883 24.8004L28.3274 19.5424L24.2752 22.2438L27.1796 28.9395C26.5883 29.6641 26.0665 30.4641 25.6376 31.3337C25.2028 32.2091 24.8897 33.1076 24.6694 34.012L17.5796 35.7627L17.8926 40.6265L25.1448 41.4612C25.8115 43.2294 26.8723 44.8467 28.281 46.1801L26.2579 53.183L30.6231 55.3453L34.9651 49.4902C36.8781 49.8033 38.8086 49.6641 40.6173 49.125L45.6781 54.383L49.7303 51.6815L46.826 44.9859C47.4173 44.2612 47.939 43.4612 48.3738 42.5917Z" stroke="white" stroke-width="1.2" stroke-miterlimit="10" stroke-linecap="round" stroke-linejoin="round"></path><path d="M42.0645 39.7476C43.6021 36.9504 42.581 33.4363 39.7838 31.8987C36.9866 30.3611 33.4726 31.3822 31.935 34.1794C30.3974 36.9766 31.4184 40.4906 34.2156 42.0282C37.0128 43.5658 40.5269 42.5447 42.0645 39.7476Z" stroke="white" stroke-width="1.2" stroke-miterlimit="10" stroke-linecap="round" stroke-linejoin="round"></path></g><defs><linearGradient id="paint0_linear" x1="74" y1="74" x2="3.18049" y2="70.6003" gradientUnits="userSpaceOnUse"><stop stop-color="#F7625F"></stop><stop offset="1" stop-color="#D94FBA"></stop></linearGradient><clipPath id="clip0"><rect width="40" height="37.9246" fill="white" transform="translate(17 18)"></rect></clipPath></defs></svg> 