<?xml version="1.0" encoding="UTF-8"?> <svg xmlns="http://www.w3.org/2000/svg" width="74" height="74" viewBox="0 0 74 74" fill="none"><circle cx="37" cy="37" r="37" fill="url(#paint0_linear)"></circle><g clip-path="url(#clip0)"><path fill-rule="evenodd" clip-rule="evenodd" d="M38.1718 33.8227H45.4789V26.5156H38.1718V33.8227ZM48.57 33.8227H55.877V26.5156H48.57V33.8227ZM18.1228 33.8227H25.4299V26.5156H18.1228V33.8227ZM28.5138 33.8227H35.8208V26.5156H28.5138V33.8227ZM43.1786 39.6276C42.0539 39.6276 41.1396 40.5419 41.1396 41.6666C41.1396 42.7914 42.0539 43.7056 43.1786 43.7056C44.3033 43.7056 45.2176 42.7914 45.2176 41.6666C45.2249 40.5419 44.3106 39.6276 43.1786 39.6276ZM55.5868 46.5719C58.2789 46.5719 60.4848 44.366 60.4848 41.6739C60.4848 38.9818 58.2789 36.7759 55.5868 36.7759H18.4131C15.721 36.7759 13.5151 38.9818 13.5151 41.6739C13.5151 44.366 15.721 46.5719 18.4131 46.5719H55.5868ZM55.5433 39.6276C56.668 39.6276 57.5823 40.5419 57.5823 41.6666C57.5823 42.7914 56.668 43.7056 55.5433 43.7056C54.4185 43.7056 53.5043 42.7914 53.5043 41.6666C53.5043 40.5419 54.4185 39.6276 55.5433 39.6276ZM30.8213 39.6276C31.946 39.6276 32.8603 40.5419 32.8603 41.6666C32.8603 42.7914 31.946 43.7056 30.8213 43.7056C29.6965 43.7056 28.7823 42.7914 28.7823 41.6666C28.775 40.5419 29.6893 39.6276 30.8213 39.6276ZM18.4566 39.6276C17.3319 39.6276 16.4176 40.5419 16.4176 41.6666C16.4176 42.7914 17.3319 43.7056 18.4566 43.7056C19.5813 43.7056 20.4956 42.7914 20.4956 41.6666C20.4956 40.5419 19.5813 39.6276 18.4566 39.6276Z" stroke="white" stroke-width="1.2" stroke-miterlimit="22.9256"></path></g><defs><linearGradient id="paint0_linear" x1="74" y1="74" x2="3.18049" y2="70.6003" gradientUnits="userSpaceOnUse"><stop stop-color="#F7625F"></stop><stop offset="1" stop-color="#D94FBA"></stop></linearGradient><clipPath id="clip0"><rect width="48" height="21.0794" fill="white" transform="translate(13 26)"></rect></clipPath></defs></svg> 