<?xml version="1.0" encoding="UTF-8"?> <svg xmlns="http://www.w3.org/2000/svg" width="74" height="74" viewBox="0 0 74 74" fill="none"><circle cx="37" cy="37" r="37" fill="url(#paint0_linear)"></circle><g clip-path="url(#clip0)"><path d="M27.9375 32.6418C28.8567 23.0782 32.5707 15.9287 36.9997 15.9287C40.8344 15.9287 44.1306 21.2862 45.5512 28.9278" stroke="white" stroke-width="1.2" stroke-miterlimit="10" stroke-linejoin="round"></path><path d="M46.0621 32.6416C46.2107 34.1365 46.2849 35.6871 46.2849 37.2841C46.2849 49.0761 42.1252 58.6397 36.9999 58.6397C31.8745 58.6397 27.7148 49.0761 27.7148 37.2841C27.7148 36.662 27.7241 36.0399 27.752 35.4271" stroke="white" stroke-width="1.2" stroke-miterlimit="10" stroke-linejoin="round"></path><path d="M27.7147 42.2794C20.3609 36.8105 16.359 30.3296 18.5039 26.6063C21.0666 22.168 31.4287 23.3472 41.6422 29.2432C44.892 31.1188 47.7425 33.2543 50.0266 35.4271" stroke="white" stroke-width="1.2" stroke-miterlimit="10" stroke-linejoin="round"></path><path d="M51.8561 37.3125C55.468 41.3515 57.0093 45.3441 55.4958 47.9625C52.9332 52.4007 42.5711 51.2215 32.3575 45.3255C31.7261 44.9541 31.104 44.5827 30.5005 44.202" stroke="white" stroke-width="1.2" stroke-miterlimit="10" stroke-linejoin="round"></path><path d="M33.2858 28.7236C32.9794 28.8908 32.6637 29.0672 32.3573 29.2436C22.1438 35.1396 15.9413 43.524 18.504 47.9623C20.6767 51.732 28.4576 51.4534 36.9998 47.6837" stroke="white" stroke-width="1.2" stroke-miterlimit="10" stroke-linejoin="round"></path><path d="M40.714 45.8455C41.0204 45.6784 41.3361 45.502 41.6425 45.3256C51.8561 39.4296 58.0585 31.0452 55.4958 26.6069C53.3231 22.8372 45.5422 23.1157 37 26.8855" stroke="white" stroke-width="1.2" stroke-miterlimit="10" stroke-linejoin="round"></path><path d="M36.9999 40.0701C38.5383 40.0701 39.7854 38.8229 39.7854 37.2845C39.7854 35.7461 38.5383 34.499 36.9999 34.499C35.4615 34.499 34.2144 35.7461 34.2144 37.2845C34.2144 38.8229 35.4615 40.0701 36.9999 40.0701Z" stroke="white" stroke-width="1.2" stroke-miterlimit="10" stroke-linejoin="round"></path></g><defs><linearGradient id="paint0_linear" x1="74" y1="74" x2="3.18049" y2="70.6003" gradientUnits="userSpaceOnUse"><stop stop-color="#F7625F"></stop><stop offset="1" stop-color="#D94FBA"></stop></linearGradient><clipPath id="clip0"><rect width="40" height="44.5682" fill="white" transform="translate(17 15)"></rect></clipPath></defs></svg> 