<?xml version="1.0" encoding="UTF-8"?> <svg xmlns="http://www.w3.org/2000/svg" width="74" height="74" viewBox="0 0 74 74" fill="none"><circle cx="37" cy="37" r="37" fill="url(#paint0_linear)"></circle><g clip-path="url(#clip0)"><path d="M20.9681 50.7842C19.1407 50.7842 17.6582 47.8219 17.6582 44.1645C17.6582 40.5097 19.1407 37.5448 20.9681 37.5448C23.7908 37.5448 24.7361 37.5448 30.8055 37.5448C30.8055 31.586 30.8055 32.9236 30.8055 26.9622C30.8055 25.1348 33.7677 23.6523 37.4252 23.6523C41.08 23.6523 44.0449 25.1348 44.0449 26.9622C44.0449 31.0172 44.0449 33.7768 44.0449 37.5448C47.7787 37.5448 45.5537 37.5448 53.0344 37.5448C54.8618 37.5448 56.3443 40.5071 56.3443 44.1645C56.3443 47.8193 54.8618 50.7842 53.0344 50.7842C52.8211 50.7842 21.2366 50.7842 20.9681 50.7842Z" stroke="white" stroke-width="1.3" stroke-miterlimit="10"></path><path d="M37.4224 30.2779C41.0784 30.2779 44.0422 28.796 44.0422 26.9681C44.0422 25.1401 41.0784 23.6582 37.4224 23.6582C33.7665 23.6582 30.8027 25.1401 30.8027 26.9681C30.8027 28.796 33.7665 30.2779 37.4224 30.2779Z" stroke="white" stroke-width="1.3" stroke-miterlimit="10"></path><path d="M20.9681 50.7873C22.796 50.7873 24.2779 47.8235 24.2779 44.1676C24.2779 40.5116 22.796 37.5479 20.9681 37.5479C19.1401 37.5479 17.6582 40.5116 17.6582 44.1676C17.6582 47.8235 19.1401 50.7873 20.9681 50.7873Z" stroke="white" stroke-width="1.3" stroke-miterlimit="10"></path><path d="M30.8398 37.5479C32.9464 39.4569 34.2945 41.7135 34.9528 44.1676" stroke="white" stroke-width="1.3" stroke-miterlimit="10"></path><path d="M44.0422 37.5479C41.9356 39.4569 40.5875 41.7135 39.9292 44.1676" stroke="white" stroke-width="1.3" stroke-miterlimit="10"></path></g><defs><linearGradient id="paint0_linear" x1="74" y1="74" x2="3.18049" y2="70.6003" gradientUnits="userSpaceOnUse"><stop stop-color="#F7625F"></stop><stop offset="1" stop-color="#D94FBA"></stop></linearGradient><clipPath id="clip0"><rect width="40" height="28.4432" fill="white" transform="translate(17 23)"></rect></clipPath></defs></svg> 