<?xml version="1.0" encoding="UTF-8"?> <svg xmlns="http://www.w3.org/2000/svg" width="74" height="74" viewBox="0 0 74 74" fill="none"><circle cx="37" cy="37" r="37" fill="url(#paint0_linear)"></circle><g clip-path="url(#clip0)"><path fill-rule="evenodd" clip-rule="evenodd" d="M26.8684 25.3847C25.9613 25.7778 25.272 26.5699 25.1692 27.6704C25.145 27.9123 25.145 28.5291 25.1692 28.8798H31.2765C31.3007 28.5291 31.3007 27.9123 31.2765 27.6704C31.1737 26.5699 30.4844 25.7778 29.5773 25.3847H26.8684ZM28.2228 24V26.9992V24ZM25.7497 28.9282C25.7981 29.6236 25.9371 30.4339 26.1488 30.8269C26.433 31.3409 27.0921 31.8428 27.8238 32.0121C28.1805 32.0665 28.2652 32.0665 28.6219 32.0121C29.3536 31.8428 30.0127 31.3469 30.2969 30.8269C30.5086 30.4399 30.6416 29.6478 30.696 28.9524L25.7497 28.9282ZM24.891 36.2207V39.2441V36.2207ZM31.5547 39.2441V36.2207V39.2441ZM22.696 39.2441L22.7867 35.223C22.8472 32.3568 33.5925 32.3689 33.659 35.223L33.7497 39.2441H22.696ZM36.5554 38.706H42.6446V32.6168H36.5554V38.706ZM45.2145 38.706H51.3037V32.6168H45.2145V38.706ZM42.1488 43.5435C41.2115 43.5435 40.4496 44.3054 40.4496 45.2426C40.4496 46.1799 41.2115 46.9418 42.1488 46.9418C43.086 46.9418 43.8479 46.1799 43.8479 45.2426C43.854 44.3054 43.0921 43.5435 42.1488 43.5435ZM52.4889 49.3303C54.7323 49.3303 56.5705 47.4921 56.5705 45.2487C56.5705 43.0053 54.7323 41.167 52.4889 41.167H21.5108C19.2674 41.167 17.4292 43.0053 17.4292 45.2487C17.4292 47.4921 19.2674 49.3303 21.5108 49.3303H52.4889ZM52.4526 43.5435C53.3899 43.5435 54.1518 44.3054 54.1518 45.2426C54.1518 46.1799 53.3899 46.9418 52.4526 46.9418C51.5154 46.9418 50.7535 46.1799 50.7535 45.2426C50.7535 44.3054 51.5154 43.5435 52.4526 43.5435ZM31.851 43.5435C32.7882 43.5435 33.5501 44.3054 33.5501 45.2426C33.5501 46.1799 32.7882 46.9418 31.851 46.9418C30.9137 46.9418 30.1518 46.1799 30.1518 45.2426C30.1458 44.3054 30.9077 43.5435 31.851 43.5435ZM21.5471 43.5435C20.6098 43.5435 19.8479 44.3054 19.8479 45.2426C19.8479 46.1799 20.6098 46.9418 21.5471 46.9418C22.4844 46.9418 23.2463 46.1799 23.2463 45.2426C23.2463 44.3054 22.4844 43.5435 21.5471 43.5435Z" stroke="white" stroke-width="1.2" stroke-miterlimit="22.9256"></path></g><defs><linearGradient id="paint0_linear" x1="74" y1="74" x2="3.18049" y2="70.6003" gradientUnits="userSpaceOnUse"><stop stop-color="#F7625F"></stop><stop offset="1" stop-color="#D94FBA"></stop></linearGradient><clipPath id="clip0"><rect width="40" height="25.7596" fill="white" transform="translate(17 24)"></rect></clipPath></defs></svg> 