<?xml version="1.0" encoding="UTF-8"?> <svg xmlns="http://www.w3.org/2000/svg" width="74" height="74" viewBox="0 0 74 74" fill="none"><circle cx="37" cy="37" r="37" fill="url(#paint0_linear)"></circle><g clip-path="url(#clip0)"><path d="M45.6392 53.7948C43.589 52.3713 40.7511 53.2666 39.9006 55.6032V55.6121C39.6141 56.4 38.5398 56.5074 38.1011 55.7912L38.0922 55.7822C36.803 53.6515 33.8487 53.3203 32.1208 55.1108C31.5389 55.7196 30.5094 55.3794 30.4019 54.5468V54.5289C30.0886 52.058 27.5192 50.554 25.2184 51.494C24.4395 51.8073 23.6427 51.0822 23.8845 50.2764L23.8934 50.2585C24.6096 47.8771 22.8728 45.46 20.393 45.3794C19.5514 45.3525 19.1217 44.3677 19.6678 43.7232L19.6857 43.7053C21.3061 41.8163 20.7063 38.9156 18.4682 37.8234C17.7162 37.4564 17.7162 36.3821 18.4771 36.015L18.504 36.0061C20.7511 34.9407 21.3777 32.049 19.7842 30.1421L19.7752 30.1332C19.2381 29.4886 19.6768 28.5038 20.5183 28.4859H20.5452C23.025 28.4322 24.7797 26.0419 24.0993 23.6515V23.6426C23.8666 22.8369 24.6723 22.1206 25.4512 22.4429L25.4691 22.4519C27.7609 23.4098 30.3303 21.9416 30.6794 19.4886V19.4707C30.7958 18.6381 31.8254 18.3158 32.3983 18.9246L32.4073 18.9335C34.1083 20.742 37.0537 20.4555 38.3786 18.3516L38.3876 18.3337C38.8352 17.6265 39.9006 17.7429 40.1781 18.5396V18.5486C40.9928 20.8941 43.8039 21.8342 45.863 20.4465L45.8809 20.4286C46.5792 19.9631 47.5102 20.5092 47.4386 21.3418V21.3507C47.2238 23.8216 49.4171 25.827 51.8612 25.4062H51.888C52.7117 25.263 53.3384 26.1403 52.9355 26.8745C51.7358 29.0499 52.9176 31.7715 55.3258 32.3803L55.3437 32.3892C56.1584 32.5951 56.3733 33.6515 55.7018 34.1618C53.7144 35.6569 53.6875 38.6292 55.6481 40.169L55.666 40.1779C56.3285 40.6972 56.0957 41.7536 55.2721 41.9416C52.846 42.5056 51.6105 45.2093 52.7833 47.4116L52.7922 47.4206C53.1862 48.1636 52.5416 49.032 51.7179 48.8709C49.2739 48.3964 47.0447 50.3749 47.2148 52.8548V52.8637C47.2685 53.75 46.3285 54.2782 45.6392 53.7948Z" stroke="white" stroke-width="1.5" stroke-miterlimit="10"></path><path d="M36.9999 49.6228C43.922 49.6228 49.5334 44.0113 49.5334 37.0892C49.5334 30.1671 43.922 24.5557 36.9999 24.5557C30.0778 24.5557 24.4663 30.1671 24.4663 37.0892C24.4663 44.0113 30.0778 49.6228 36.9999 49.6228Z" stroke="white" stroke-width="1.5" stroke-miterlimit="10"></path><path d="M32.5234 37.0896L36.1045 40.6706L42.3712 32.6133" stroke="white" stroke-width="1.5" stroke-miterlimit="10"></path></g><defs><linearGradient id="paint0_linear" x1="74" y1="74" x2="3.18049" y2="70.6003" gradientUnits="userSpaceOnUse"><stop stop-color="#F7625F"></stop><stop offset="1" stop-color="#D94FBA"></stop></linearGradient><clipPath id="clip0"><rect width="40" height="40.1701" fill="white" transform="translate(17 17)"></rect></clipPath></defs></svg> 