<?xml version="1.0" encoding="UTF-8"?> <svg xmlns="http://www.w3.org/2000/svg" width="74" height="74" viewBox="0 0 74 74" fill="none"><circle cx="37" cy="37" r="37" fill="url(#paint0_linear)"></circle><g clip-path="url(#clip0)"><path d="M34.9131 56.9999V54.3912C34.9131 54.3912 37.5218 52.4347 37.5218 50.0434V49.1738" stroke="#FFF4F4" stroke-width="1.5" stroke-miterlimit="10"></path><path d="M27.9566 37.8691L24.4783 40.6517C23.2522 41.7822 21.8696 43.0865 21.8696 45.6952V50.73V56.9996" stroke="#FFF4F4" stroke-width="1.5" stroke-miterlimit="10"></path><path d="M25.9565 47.4342C25.9565 47.4342 31.5739 42.0776 33.1739 40.4776C34.7739 38.8776 36.9565 42.4428 35.0435 44.8255C34.1044 45.7646 33.1739 46.5646 33.1739 46.5646C33.1739 46.9559 33.1739 47.9646 33.1739 48.3037C33.1739 51.7124 30.0783 52.6515 29.5652 52.6515" stroke="#FFF4F4" stroke-width="1.5" stroke-miterlimit="10"></path><path d="M27.9565 45.6952V21.3474L31.4348 17.8691H52.3044V49.1735H33.1739" stroke="#FFF4F4" stroke-width="1.5" stroke-miterlimit="10"></path><path d="M33.1741 19.6084V23.0867H29.6958" stroke="#FFF4F4" stroke-width="1.5" stroke-miterlimit="10"></path><path d="M35.7827 32.6515L39.261 36.1298L46.2175 28.3037" stroke="#FFF4F4" stroke-width="1.5" stroke-miterlimit="10"></path></g><defs><linearGradient id="paint0_linear" x1="74" y1="74" x2="3.18049" y2="70.6003" gradientUnits="userSpaceOnUse"><stop stop-color="#F7625F"></stop><stop offset="1" stop-color="#D94FBA"></stop></linearGradient><clipPath id="clip0"><rect width="32.1739" height="40" fill="white" transform="translate(21 17)"></rect></clipPath></defs></svg> 