<?xml version="1.0" encoding="UTF-8"?> <svg xmlns="http://www.w3.org/2000/svg" width="74" height="74" viewBox="0 0 74 74" fill="none"><circle cx="37" cy="37" r="37" fill="url(#paint0_linear)"></circle><g clip-path="url(#clip0)"><path d="M41.6262 17.8691L42.4958 20.4778L40.7567 21.3474V35.2604L52.9306 47.4344C54.5828 49.0865 55.4523 51.8691 53.8002 53.5213L51.1915 56.13H23.3654L20.7567 53.5213C19.1045 51.8691 19.9741 49.0865 21.6262 47.4344L33.8002 35.2604V21.3474L32.061 20.4778L32.9306 17.8691H41.6262Z" stroke="white" stroke-width="1.2" stroke-miterlimit="10" stroke-linejoin="round"></path><path d="M47.7134 42.2167H39.7308C39.3743 41.208 38.4178 40.4775 37.2786 40.4775C36.1482 40.4775 35.1917 41.208 34.8265 42.2167H32.0613L24.3308 49.5819C23.6352 50.2775 23.6352 51.4167 24.3308 52.1123L28.583 56.1297" stroke="white" stroke-width="1.2" stroke-miterlimit="10" stroke-linejoin="round"></path><path d="M48.5826 50.0433C48.5826 51.4867 47.4174 52.652 45.9739 52.652C44.5305 52.652 43.3652 51.4867 43.3652 50.0433C43.3652 48.5998 44.5305 47.4346 45.9739 47.4346C47.4174 47.4346 48.5826 48.5998 48.5826 50.0433Z" stroke="white" stroke-width="1.2" stroke-miterlimit="10" stroke-linejoin="round"></path><path d="M39.0176 48.7388C39.0176 50.417 37.6524 51.7823 35.9741 51.7823C34.2959 51.7823 32.9307 50.417 32.9307 48.7388C32.9307 47.0605 34.2959 45.6953 35.9741 45.6953C37.6524 45.6953 39.0176 47.0605 39.0176 48.7388Z" stroke="white" stroke-width="1.2" stroke-miterlimit="10" stroke-linejoin="round"></path><path d="M29.4521 52.6514H31.1913" stroke="white" stroke-width="1.2" stroke-miterlimit="10" stroke-linejoin="round"></path><path d="M41.6265 44.8262H43.3656" stroke="white" stroke-width="1.2" stroke-miterlimit="10" stroke-linejoin="round"></path></g><defs><linearGradient id="paint0_linear" x1="74" y1="74" x2="3.18049" y2="70.6003" gradientUnits="userSpaceOnUse"><stop stop-color="#F7625F"></stop><stop offset="1" stop-color="#D94FBA"></stop></linearGradient><clipPath id="clip0"><rect width="36.5565" height="40" fill="white" transform="translate(19 17)"></rect></clipPath></defs></svg> 