<?xml version="1.0" encoding="UTF-8"?> <svg xmlns="http://www.w3.org/2000/svg" width="74" height="74" viewBox="0 0 74 74" fill="none"><circle cx="37" cy="37" r="37" fill="white"></circle><path d="M24.736 54.5942H24.786V54.5442V31.4433V31.3933H24.736H20.7117L27.9456 21.9491L35.1794 31.3933H31.1436H31.0936V31.4433V47.3819V47.4319H31.1436H32.5544H32.6044V47.3819V32.8893H38.1199H38.2211L38.1596 32.8089L27.9852 19.5253L27.9456 19.4734L27.9059 19.5253L17.7315 32.8089L17.67 32.8893H17.7712H23.2753V54.5442V54.5942H23.3253H24.736Z" fill="#0089CF" stroke="#0089CF" stroke-width="0.1"></path><path d="M46.99 58.05H47.04V58V48.9308H51.5477H51.649L51.5874 48.8504L43.2312 37.9408L43.1915 37.889L43.1518 37.9408L34.7948 48.8504L34.7332 48.9308H34.8345H39.3342V54.5441V54.5941H39.3842H40.795H40.845V54.5441V47.4848V47.4348H40.795H37.7758L43.1915 40.3646L48.6072 47.4348H45.5793H45.5293V47.4848V58V58.05H45.5793H46.99Z" fill="#0089CF" stroke="#0089CF" stroke-width="0.1"></path><path d="M45.4754 36.0788H45.5254V36.0288V25.5145V25.4645H45.4754H42.4562L47.8719 18.3934L53.2876 25.4645H50.2597H50.2097V25.5145V30.5034V30.5534H50.2597H51.6704H51.7204V30.5034V26.9605H56.229H56.3303L56.2687 26.8801L47.9116 15.9696L47.8719 15.9178L47.8322 15.9696L39.4761 26.8801L39.4145 26.9605H39.5157H44.0146V36.0288V36.0788H44.0646H45.4754Z" fill="#0089CF" stroke="#0089CF" stroke-width="0.1"></path></svg> 