<?xml version="1.0" encoding="UTF-8"?> <svg xmlns="http://www.w3.org/2000/svg" width="74" height="74" viewBox="0 0 74 74" fill="none"><circle cx="37" cy="37" r="37" fill="white"></circle><g clip-path="url(#clip0)"><path d="M40.6507 42.4645L40.6289 42.4585L40.61 42.4709C38.542 43.8247 35.3758 43.7953 33.3069 42.4706L33.2864 42.4575L33.2634 42.4655C32.4273 42.758 31.757 43.0083 31.2229 43.2756C30.6884 43.5432 30.2874 43.8293 29.9917 44.195C29.4 44.9265 29.2399 45.9635 29.2399 47.7627V53.3277V53.3777H29.2899H44.7624H44.8124V53.3277V47.7627V47.7626C44.8087 45.9598 44.6486 44.8703 44.0411 44.1136C43.4343 43.3577 42.3887 42.9439 40.6507 42.4645Z" stroke="#0089CF" stroke-width="0.1"></path><path d="M28.6999 53.875V53.925H28.7499H45.2949V53.875H45.3449V47.755C45.3449 45.8684 45.1545 44.6657 44.4821 43.8063C43.81 42.9475 42.6643 42.4417 40.7857 41.9243V41.9243L40.7853 41.9241L40.5603 41.8641L40.5387 41.8584L40.52 41.8706L40.325 41.9981L40.325 41.9982C39.3972 42.6068 38.1922 42.9125 36.9784 42.9115C35.7645 42.9106 34.5462 42.6031 33.5919 41.9904L33.5919 41.9904L33.5912 41.99L33.3737 41.855L33.3536 41.8425L33.3311 41.8502L33.0911 41.9327L33.0908 41.9328C31.3268 42.5545 30.2231 43.0383 29.565 43.8574C28.9054 44.6783 28.6999 45.8269 28.6999 47.755V53.875ZM44.1724 47.755V52.715H29.8649V47.755C29.8649 46.1622 29.9639 45.2852 30.4258 44.6706C30.6564 44.3638 30.98 44.1191 31.4356 43.8844C31.8874 43.6517 32.4659 43.4302 33.2073 43.1673C35.4276 44.4434 38.5507 44.4435 40.7195 43.1589C42.265 43.5957 43.1198 43.9557 43.5945 44.5908C44.0715 45.2289 44.1724 46.1547 44.1724 47.755Z" fill="#0089CF" stroke="#0089CF" stroke-width="0.1"></path><path d="M32.3448 37.0452C32.3448 39.6285 34.368 41.7302 36.8648 41.7302C39.3616 41.7302 41.3848 39.6285 41.3848 37.0452C41.3848 34.4618 39.3616 32.3602 36.8648 32.3602C34.368 32.3602 32.3448 34.4542 32.3448 37.0452Z" stroke="#0089CF" stroke-width="0.1"></path><path d="M41.9323 37.0451V37.045C41.9323 34.1541 39.6691 31.805 36.8723 31.805C34.0755 31.805 31.8123 34.1541 31.8123 37.045C31.8123 39.936 34.0831 42.285 36.8723 42.285C39.6617 42.285 41.9247 39.9283 41.9323 37.0451ZM32.9848 37.045C32.9848 34.8209 34.734 33.015 36.8723 33.015C39.0106 33.015 40.7598 34.8209 40.7598 37.045C40.7598 39.269 39.0106 41.075 36.8723 41.075C34.7266 41.075 32.9848 39.2691 32.9848 37.045Z" fill="#0089CF" stroke="#0089CF" stroke-width="0.1"></path><path d="M46.4149 51.1827V51.2327H46.4649H57.9424H57.9924H57.9999V51.1827H58.0424V45.0627C58.0424 43.1762 57.852 41.9734 57.1796 41.1141C56.5075 40.2552 55.3618 39.7495 53.4832 39.232V39.232L53.4828 39.2319L53.2578 39.1719L53.2362 39.1662L53.2175 39.1784L53.0225 39.3059L53.0225 39.3059C52.0947 39.9145 50.8897 40.2202 49.6759 40.2193C48.4622 40.2183 47.244 39.9109 46.2898 39.2984L46.1101 39.1786L46.0925 39.1669L46.0719 39.1713L45.8619 39.2163L45.8619 39.2163L45.861 39.2165C45.4364 39.316 44.6938 39.6722 43.9984 40.1213C43.6499 40.3464 43.3116 40.596 43.0292 40.8502C42.7476 41.1038 42.5187 41.3646 42.3928 41.6126L42.3677 41.6619L42.4194 41.6819L43.5069 42.1019L43.549 42.1181L43.5695 42.0779C43.625 41.9685 43.7494 41.8283 43.9224 41.6734C44.0943 41.5196 44.3099 41.3551 44.543 41.1966C45.0013 40.8849 45.5223 40.6 45.9045 40.4674C48.1249 41.7512 51.2557 41.7513 53.4319 40.4667C54.9774 40.9034 55.8323 41.2635 56.307 41.8986C56.784 42.5367 56.8849 43.4625 56.8849 45.0627V50.0227H46.4649H46.4149V50.0727V51.1827Z" fill="#0089CF" stroke="#0089CF" stroke-width="0.1"></path><path d="M45.0573 34.3528C45.0573 36.9362 47.0805 39.0378 49.5773 39.0378C52.0741 39.0378 54.0973 36.9362 54.0973 34.3528C54.0973 31.7694 52.0741 29.6678 49.5773 29.6678C47.0805 29.6678 45.0573 31.7618 45.0573 34.3528Z" stroke="#0089CF" stroke-width="0.1"></path><path d="M44.5248 34.3526C44.5248 37.2435 46.788 39.5926 49.5773 39.5926C52.3667 39.5926 54.6298 37.2359 54.6298 34.3526C54.6298 31.4617 52.3667 29.1126 49.5773 29.1126C46.788 29.1126 44.5248 31.4617 44.5248 34.3526ZM45.6898 34.3451C45.6898 32.1211 47.4391 30.3151 49.5773 30.3151C51.7156 30.3151 53.4648 32.1211 53.4648 34.3451C53.4648 36.5691 51.7156 38.3751 49.5773 38.3751C47.4316 38.3751 45.6898 36.5692 45.6898 34.3451Z" fill="#0089CF" stroke="#0089CF" stroke-width="0.1"></path><path d="M15.9499 51.1827V51.2327H15.9999H27.5349H27.5849V51.1827V50.0727V50.0227H27.5349H17.1224V45.0627C17.1224 43.4625 17.2233 42.5367 17.7002 41.8986C18.175 41.2635 19.0298 40.9034 20.5753 40.4667C22.7442 41.7513 25.8823 41.7512 28.1028 40.4674C28.4849 40.6 29.0059 40.8849 29.4643 41.1966C29.6974 41.3551 29.913 41.5196 30.0848 41.6734C30.2579 41.8283 30.3822 41.9685 30.4378 42.0779L30.4583 42.1181L30.5004 42.1019L31.5879 41.6819L31.6395 41.6619L31.6145 41.6126C31.4885 41.3646 31.2597 41.1038 30.978 40.8502C30.6957 40.596 30.3573 40.3464 30.0089 40.1213C29.3135 39.6722 28.5709 39.316 28.1463 39.2165L28.1463 39.2165L28.1454 39.2163L27.9354 39.1713L27.9147 39.1669L27.8971 39.1786L27.7179 39.2981C27.7177 39.2982 27.7176 39.2983 27.7175 39.2984C26.7632 39.9109 25.5451 40.2183 24.3314 40.2193C23.1175 40.2202 21.9126 39.9145 20.9848 39.3059L20.9847 39.3059L20.7897 39.1784L20.7711 39.1662L20.7495 39.1719L20.5245 39.2319L20.5245 39.2319L20.5242 39.232C18.6343 39.7494 17.4848 40.2552 16.8118 41.1141C16.1384 41.9734 15.9499 43.1763 15.9499 45.0627V51.1827Z" fill="#0089CF" stroke="#0089CF" stroke-width="0.1"></path><path d="M24.4224 39.0378C26.9192 39.0378 28.9424 36.9362 28.9424 34.3528C28.9424 31.7618 26.9192 29.6678 24.4224 29.6678C21.9256 29.6678 19.9024 31.7694 19.9024 34.3528C19.9024 36.9362 21.9256 39.0378 24.4224 39.0378Z" stroke="#0089CF" stroke-width="0.1"></path><path d="M24.4222 30.3226H24.4224C26.5681 30.3226 28.3099 32.1285 28.3099 34.3526C28.3099 36.5766 26.5606 38.3826 24.4224 38.3826C22.2767 38.3826 20.5349 36.5767 20.5349 34.3526C20.5349 32.1284 22.2842 30.3152 24.4222 30.3226ZM24.4149 29.1126C21.6255 29.1126 19.3624 31.4617 19.3624 34.3526C19.3624 37.2359 21.6179 39.5926 24.4149 39.5926C27.2116 39.5926 29.4749 37.2435 29.4749 34.3526C29.4749 31.4616 27.2041 29.1126 24.4149 29.1126Z" fill="#0089CF" stroke="#0089CF" stroke-width="0.1"></path><path d="M31.0074 30.0002C33.5042 30.0002 35.5274 27.8986 35.5274 25.3152C35.5274 22.7318 33.5042 20.6302 31.0074 20.6302C28.5105 20.6302 26.4874 22.7318 26.4874 25.3152C26.4874 27.8986 28.5105 30.0002 31.0074 30.0002Z" stroke="#0089CF" stroke-width="0.1"></path><path d="M31.0074 20.075C28.2181 20.075 25.9549 22.4241 25.9549 25.315C25.9549 28.2059 28.2181 30.555 31.0074 30.555C33.7967 30.555 36.0599 28.2059 36.0599 25.315C36.0599 22.4241 33.7967 20.075 31.0074 20.075ZM31.0074 29.345C28.8617 29.345 27.1199 27.5391 27.1199 25.315C27.1199 23.091 28.8691 21.285 31.0074 21.285C33.1531 21.285 34.8949 23.0909 34.8949 25.315C34.8949 27.539 33.1456 29.345 31.0074 29.345Z" fill="#0089CF" stroke="#0089CF" stroke-width="0.1"></path><path d="M43.6149 30.0002C46.1117 30.0002 48.1349 27.8986 48.1349 25.3152C48.1349 22.7318 46.1117 20.6302 43.6149 20.6302C41.1181 20.6302 39.0949 22.7318 39.0949 25.3152C39.0949 27.8986 41.1181 30.0002 43.6149 30.0002Z" stroke="#0089CF" stroke-width="0.1"></path><path d="M43.6149 20.075C40.8181 20.075 38.5549 22.4241 38.5549 25.315C38.5549 28.206 40.8256 30.555 43.6149 30.555C46.4042 30.555 48.6674 28.2059 48.6674 25.315C48.6674 22.4242 46.4117 20.075 43.6149 20.075ZM43.6149 29.345C41.4692 29.345 39.7274 27.5391 39.7274 25.315C39.7274 23.0909 41.4692 21.285 43.6149 21.285C45.7606 21.285 47.5024 23.0909 47.5024 25.315C47.5024 27.539 45.7531 29.345 43.6149 29.345Z" fill="#0089CF" stroke="#0089CF" stroke-width="0.1"></path></g><defs><clipPath id="clip0"><rect width="42" height="33.75" fill="white" transform="translate(15.9999 20.125)"></rect></clipPath></defs></svg> 