<?xml version="1.0" encoding="UTF-8"?> <svg xmlns="http://www.w3.org/2000/svg" width="74" height="74" viewBox="0 0 74 74" fill="none"><circle cx="37" cy="37" r="37" fill="white"></circle><g clip-path="url(#clip0)"><path d="M37.0015 13.5V22.5" stroke="#0089CF" stroke-width="2" stroke-miterlimit="10" stroke-linejoin="round"></path><path d="M21.7783 20.5L27.5817 26.6" stroke="#0089CF" stroke-width="2" stroke-miterlimit="10" stroke-linejoin="round"></path><path d="M15.1187 36.5H23.6809" stroke="#0089CF" stroke-width="2" stroke-miterlimit="10" stroke-linejoin="round"></path><path d="M21.7783 52.4999L27.5817 46.3999" stroke="#0089CF" stroke-width="2" stroke-miterlimit="10" stroke-linejoin="round"></path><path d="M52.222 52.4999L46.4187 46.3999" stroke="#0089CF" stroke-width="2" stroke-miterlimit="10" stroke-linejoin="round"></path><path d="M58.8802 36.5H50.3179" stroke="#0089CF" stroke-width="2" stroke-miterlimit="10" stroke-linejoin="round"></path><path d="M52.222 20.5L46.4187 26.6" stroke="#0089CF" stroke-width="2" stroke-miterlimit="10" stroke-linejoin="round"></path><path d="M40.8038 58.5H39.8524L38.9011 59.5H36.9983H35.0956L34.1442 58.5H33.1929" stroke="#0089CF" stroke-width="2" stroke-miterlimit="10" stroke-linejoin="round"></path><path d="M31.2905 52.5H42.7069" stroke="#0089CF" stroke-width="2" stroke-miterlimit="10" stroke-linejoin="round"></path><path d="M32.2432 55.5H41.7568" stroke="#0089CF" stroke-width="2" stroke-miterlimit="10" stroke-linejoin="round"></path><path d="M41.7569 50.5V48.5C41.7569 46.7 42.3278 45 43.5645 43.7C45.3721 41.8 46.5138 39.4 46.5138 36.5C46.5138 31 42.2326 26.5 37.0001 26.5C31.7676 26.5 27.4865 31 27.4865 36.5C27.4865 39.4 28.6281 41.8 30.4357 43.7C31.6725 45 32.2433 46.6 32.2433 48.5V50.5" stroke="#0089CF" stroke-width="2" stroke-miterlimit="10" stroke-linejoin="round"></path><path d="M30.4355 19.8999L31.8626 23.5999" stroke="#0089CF" stroke-width="2" stroke-miterlimit="10" stroke-linejoin="round"></path><path d="M21.2085 29.6001L24.7286 31.1001" stroke="#0089CF" stroke-width="2" stroke-miterlimit="10" stroke-linejoin="round"></path><path d="M21.2085 43.3999L24.7286 41.8999" stroke="#0089CF" stroke-width="2" stroke-miterlimit="10" stroke-linejoin="round"></path><path d="M52.791 43.3999L49.271 41.8999" stroke="#0089CF" stroke-width="2" stroke-miterlimit="10" stroke-linejoin="round"></path><path d="M52.791 29.6001L49.271 31.1001" stroke="#0089CF" stroke-width="2" stroke-miterlimit="10" stroke-linejoin="round"></path><path d="M43.5646 19.8999L42.1376 23.5999" stroke="#0089CF" stroke-width="2" stroke-miterlimit="10" stroke-linejoin="round"></path><path d="M34.146 39.5L37.0001 41.5L39.8542 39.5" stroke="#0089CF" stroke-width="2" stroke-miterlimit="10"></path><path d="M37.0015 41.5V50.5" stroke="#0089CF" stroke-width="2" stroke-miterlimit="10"></path></g><defs><clipPath id="clip0"><rect width="43.7628" height="47" fill="white" transform="translate(15.1187 13.5)"></rect></clipPath></defs></svg> 