<?xml version="1.0" encoding="UTF-8"?> <svg xmlns="http://www.w3.org/2000/svg" width="74" height="74" viewBox="0 0 74 74" fill="none"><circle cx="37" cy="37" r="37" fill="white"></circle><g clip-path="url(#clip0)"><path d="M51.4287 34.2256L57.125 39.6243V57.9993" stroke="#0089CF" stroke-width="2" stroke-miterlimit="10"></path><path d="M40.5 44.8745V50.1245C40.5 52.0583 42.0663 53.6245 44 53.6245V57.9995" stroke="#0089CF" stroke-width="2" stroke-miterlimit="10"></path><path d="M53.625 43.9995L45.855 36.0195C45.3825 35.547 44.7262 35.2495 44 35.2495C42.5475 35.2495 41.375 36.422 41.375 37.8745C41.375 38.6008 41.6725 39.257 42.145 39.7295L46.625 44.2095V50.1245C46.625 52.0583 48.1912 53.6245 50.125 53.6245" stroke="#0089CF" stroke-width="2" stroke-miterlimit="10"></path><path d="M47.7538 37.962L50.5625 35.232C52.4525 33.2895 53.625 30.5945 53.625 27.6108C53.625 21.6783 48.9787 16.8745 43.2387 16.8745C40.0275 16.8745 37.1575 18.3883 35.25 20.7508C33.3425 18.3883 30.4725 16.8745 27.2612 16.8745C21.5212 16.8745 16.875 21.6783 16.875 27.6108C16.875 30.5858 18.0475 33.2808 19.9375 35.232L35.25 50.1245L44.0087 41.602" stroke="#0089CF" stroke-width="2" stroke-miterlimit="10"></path></g><defs><clipPath id="clip0"><rect width="42" height="42" fill="white" transform="translate(16 15.9995)"></rect></clipPath></defs></svg> 