<svg width="36" height="36" viewBox="0 0 36 36" fill="none" xmlns="http://www.w3.org/2000/svg">
<g clip-path="url(#clip0_729_162)">
<path d="M18 36C27.9411 36 36 27.9411 36 18C36 8.05887 27.9411 0 18 0C8.05887 0 0 8.05887 0 18C0 27.9411 8.05887 36 18 36Z" fill="white"/>
<g clip-path="url(#clip1_729_162)">
<mask id="path-2-inside-1_729_162" fill="white">
<path d="M9.14239 9.66833L16.0078 18.848L9.09912 26.3115H10.6541L16.7027 19.777L21.5898 26.3115H26.8812L19.6294 16.6154L26.06 9.66833H24.5051L18.9348 15.6864L14.4339 9.66833H9.14239ZM11.4292 10.8137H13.86L19.2271 17.9898L24.5942 25.166H22.1634L11.4292 10.8137Z"/>
</mask>
<path d="M9.14239 9.66833V8.16833H6.14744L7.94118 10.5667L9.14239 9.66833ZM16.0078 18.848L17.1086 19.867L17.9573 18.9501L17.209 17.9496L16.0078 18.848ZM9.09912 26.3115L7.99834 25.2926L5.66663 27.8115H9.09912V26.3115ZM10.6541 26.3115V27.8115H11.3096L11.7549 27.3305L10.6541 26.3115ZM16.7027 19.777L17.9039 18.8786L16.8253 17.4364L15.6019 18.7581L16.7027 19.777ZM21.5898 26.3115L20.3886 27.2099L20.8385 27.8115H21.5898V26.3115ZM26.8812 26.3115V27.8115H29.8761L28.0824 25.4131L26.8812 26.3115ZM19.6294 16.6154L18.5287 15.5964L17.68 16.5133L18.4282 17.5138L19.6294 16.6154ZM26.06 9.66833L27.1608 10.6873L29.4925 8.16833H26.06V9.66833ZM24.5051 9.66833V8.16833H23.8495L23.4043 8.64941L24.5051 9.66833ZM18.9348 15.6864L17.7335 16.5847L18.8122 18.027L20.0356 16.7053L18.9348 15.6864ZM14.4339 9.66833L15.6351 8.76996L15.1852 8.16833H14.4339V9.66833ZM11.4292 10.8137V9.3137H8.43417L10.228 11.7121L11.4292 10.8137ZM13.86 10.8137L15.0612 9.9153L14.6112 9.3137H13.86V10.8137ZM24.5942 25.166V26.666H27.5892L25.7954 24.2676L24.5942 25.166ZM22.1634 25.166L20.9622 26.0644L21.4121 26.666H22.1634V25.166ZM19.2271 17.9898L20.4283 17.0914L20.4283 17.0914L19.2271 17.9898ZM7.94118 10.5667L14.8066 19.7464L17.209 17.9496L10.3436 8.76995L7.94118 10.5667ZM14.9071 17.8291L7.99834 25.2926L10.1999 27.3305L17.1086 19.867L14.9071 17.8291ZM9.09912 27.8115H10.6541V24.8115H9.09912V27.8115ZM11.7549 27.3305L17.8035 20.796L15.6019 18.7581L9.55327 25.2926L11.7549 27.3305ZM15.5015 20.6754L20.3886 27.2099L22.791 25.4131L17.9039 18.8786L15.5015 20.6754ZM21.5898 27.8115H26.8812V24.8115H21.5898V27.8115ZM28.0824 25.4131L20.8307 15.717L18.4282 17.5138L25.6799 27.2099L28.0824 25.4131ZM20.7302 17.6343L27.1608 10.6873L24.9592 8.64938L18.5287 15.5964L20.7302 17.6343ZM26.06 8.16833H24.5051V11.1683H26.06V8.16833ZM23.4043 8.64941L17.8339 14.6674L20.0356 16.7053L25.6059 10.6873L23.4043 8.64941ZM20.136 14.788L15.6351 8.76996L13.2327 10.5667L17.7335 16.5847L20.136 14.788ZM14.4339 8.16833H9.14239V11.1683H14.4339V8.16833ZM11.4292 12.3137H13.86V9.3137H11.4292V12.3137ZM24.5942 23.666H22.1634V26.666H24.5942V23.666ZM23.3646 24.2676L12.6304 9.9153L10.228 11.7121L20.9622 26.0644L23.3646 24.2676ZM12.6588 11.7121L18.0259 18.8882L20.4283 17.0914L15.0612 9.9153L12.6588 11.7121ZM18.0259 18.8882L23.393 26.0644L25.7954 24.2676L20.4283 17.0914L18.0259 18.8882Z" fill="#5E5E5E" mask="url(#path-2-inside-1_729_162)"/>
</g>
</g>
<defs>
<clipPath id="clip0_729_162">
<rect width="36" height="36" fill="white"/>
</clipPath>
<clipPath id="clip1_729_162">
<rect width="18" height="18" fill="white" transform="translate(9 9)"/>
</clipPath>
</defs>
</svg>
