<?xml version="1.0" encoding="UTF-8"?> <svg xmlns="http://www.w3.org/2000/svg" width="56" height="56" viewBox="0 0 56 56" fill="none"><g clip-path="url(#clip0)"><path d="M27.8828 4V13" stroke="#5E5E5E" stroke-width="2" stroke-miterlimit="10" stroke-linejoin="round"></path><path d="M12.6597 11L18.463 17.1" stroke="#5E5E5E" stroke-width="2" stroke-miterlimit="10" stroke-linejoin="round"></path><path d="M6 27H14.5623" stroke="#5E5E5E" stroke-width="2" stroke-miterlimit="10" stroke-linejoin="round"></path><path d="M12.6597 42.9999L18.463 36.8999" stroke="#5E5E5E" stroke-width="2" stroke-miterlimit="10" stroke-linejoin="round"></path><path d="M43.1034 42.9999L37.3 36.8999" stroke="#5E5E5E" stroke-width="2" stroke-miterlimit="10" stroke-linejoin="round"></path><path d="M49.7615 27H41.1992" stroke="#5E5E5E" stroke-width="2" stroke-miterlimit="10" stroke-linejoin="round"></path><path d="M43.1034 11L37.3 17.1" stroke="#5E5E5E" stroke-width="2" stroke-miterlimit="10" stroke-linejoin="round"></path><path d="M31.6851 49H30.7338L29.7824 50H27.8797H25.977L25.0256 49H24.0742" stroke="#5E5E5E" stroke-width="2" stroke-miterlimit="10" stroke-linejoin="round"></path><path d="M22.1719 43H33.5883" stroke="#5E5E5E" stroke-width="2" stroke-miterlimit="10" stroke-linejoin="round"></path><path d="M23.1245 46H32.6382" stroke="#5E5E5E" stroke-width="2" stroke-miterlimit="10" stroke-linejoin="round"></path><path d="M32.6383 41V39C32.6383 37.2 33.2091 35.5 34.4459 34.2C36.2535 32.3 37.3951 29.9 37.3951 27C37.3951 21.5 33.114 17 27.8815 17C22.6489 17 18.3678 21.5 18.3678 27C18.3678 29.9 19.5094 32.3 21.317 34.2C22.5538 35.5 23.1246 37.1 23.1246 39V41" stroke="#5E5E5E" stroke-width="2" stroke-miterlimit="10" stroke-linejoin="round"></path><path d="M21.3169 10.3999L22.7439 14.0999" stroke="#5E5E5E" stroke-width="2" stroke-miterlimit="10" stroke-linejoin="round"></path><path d="M12.0898 20.1001L15.6099 21.6001" stroke="#5E5E5E" stroke-width="2" stroke-miterlimit="10" stroke-linejoin="round"></path><path d="M12.0898 33.8999L15.6099 32.3999" stroke="#5E5E5E" stroke-width="2" stroke-miterlimit="10" stroke-linejoin="round"></path><path d="M43.6724 33.8999L40.1523 32.3999" stroke="#5E5E5E" stroke-width="2" stroke-miterlimit="10" stroke-linejoin="round"></path><path d="M43.6724 20.1001L40.1523 21.6001" stroke="#5E5E5E" stroke-width="2" stroke-miterlimit="10" stroke-linejoin="round"></path><path d="M34.446 10.3999L33.0189 14.0999" stroke="#5E5E5E" stroke-width="2" stroke-miterlimit="10" stroke-linejoin="round"></path><path d="M25.0273 30L27.8814 32L30.7355 30" stroke="#5E5E5E" stroke-width="2" stroke-miterlimit="10"></path><path d="M27.8828 32V41" stroke="#5E5E5E" stroke-width="2" stroke-miterlimit="10"></path></g><defs><clipPath id="clip0"><rect width="43.7628" height="47" fill="white" transform="translate(6 4)"></rect></clipPath></defs></svg> 