<?xml version="1.0" encoding="UTF-8"?> <svg xmlns="http://www.w3.org/2000/svg" width="56" height="56" viewBox="0 0 56 56" fill="none"><g clip-path="url(#clip0)"><path d="M28.0274 5C26.3149 7.6 14.518 13 9.95142 13C9.95142 21.7 9.95142 24.5 9.95142 32C9.95142 40.9 26.9809 50.7 28.0274 51C29.0739 50.7 46.1033 40.3 46.1033 33C46.1033 25.5 46.1033 21.7 46.1033 13C41.0611 13 29.835 7.6 28.0274 5Z" stroke="#5E5E5E" stroke-width="2" stroke-miterlimit="10"></path><path d="M28.0273 46C28.7884 45.8 42.2978 36.7 42.2978 31C42.2978 25.1 42.2978 23.8 42.2978 17" stroke="#5E5E5E" stroke-width="2" stroke-miterlimit="10"></path><path d="M28.0285 11C26.6015 13.1 17.3732 17 13.7581 17C13.7581 23.8 13.7581 26.1 13.7581 32" stroke="#5E5E5E" stroke-width="2" stroke-miterlimit="10"></path><path d="M22.3206 28L26.126 32L33.7369 23" stroke="#5E5E5E" stroke-width="2" stroke-miterlimit="10"></path></g><defs><clipPath id="clip0"><rect width="38.0546" height="48" fill="white" transform="translate(9 4)"></rect></clipPath></defs></svg> 