<?xml version="1.0" encoding="UTF-8"?> <svg xmlns="http://www.w3.org/2000/svg" width="56" height="56" viewBox="0 0 56 56" fill="none"><g clip-path="url(#clip0)"><path d="M11.6597 10H35.4438V7L40.2006 12L35.4438 17V14H18.3192" stroke="#5E5E5E" stroke-width="2" stroke-miterlimit="10" stroke-linejoin="round"></path><path d="M38.2979 28H44.9574V25L49.7142 30L44.9574 35V32H39.2492" stroke="#5E5E5E" stroke-width="2" stroke-miterlimit="10" stroke-linejoin="round"></path><path d="M33.541 42H38.2978V39L43.0547 44L38.2978 49V46H19.2705" stroke="#5E5E5E" stroke-width="2" stroke-miterlimit="10" stroke-linejoin="round"></path><path d="M5 40H16.4164" stroke="#5E5E5E" stroke-width="2" stroke-miterlimit="10" stroke-linejoin="round"></path><path d="M24.9786 33C26.5549 33 27.8327 31.6569 27.8327 30C27.8327 28.3431 26.5549 27 24.9786 27C23.4023 27 22.1245 28.3431 22.1245 30C22.1245 31.6569 23.4023 33 24.9786 33Z" stroke="#5E5E5E" stroke-width="2" stroke-miterlimit="10" stroke-linejoin="round"></path><path d="M36.2061 27.3L34.9694 24L32.1153 25C31.5445 24.1 30.8785 23.4 30.1174 22.8L31.1639 19.7L28.1195 18.3L26.6925 21.2C25.7411 21 24.7898 21 23.8384 21.1L22.5065 18.2L19.367 19.5L20.2232 22.6C19.367 23.2 18.701 23.9 18.1302 24.7L15.181 23.6L13.849 26.8L16.608 28.3C16.4177 29.3 16.4177 30.3 16.5129 31.3L13.7539 32.7L14.9907 36L17.9399 35.1C18.5107 36 19.1767 36.6999 19.9378 37.2999L18.8913 40.4L21.9357 41.7999L23.3627 38.9C24.3141 39.1 25.2654 39.1 26.2168 39L27.5487 41.9L30.6882 40.5999L29.7369 37.5C30.5931 36.9 31.259 36.2 31.8299 35.4L34.7791 36.5L36.111 33.3L33.352 31.8C33.5423 30.8 33.5423 29.8 33.4472 28.8L36.2061 27.3Z" stroke="#5E5E5E" stroke-width="2" stroke-miterlimit="10" stroke-linejoin="round"></path><path d="M16.4178 19H7.85547" stroke="#5E5E5E" stroke-width="2" stroke-miterlimit="10" stroke-linejoin="round"></path></g><defs><clipPath id="clip0"><rect width="45.6656" height="44" fill="white" transform="translate(5 6)"></rect></clipPath></defs></svg> 