<?xml version="1.0" encoding="UTF-8"?> <svg xmlns="http://www.w3.org/2000/svg" width="56" height="56" viewBox="0 0 56 56" fill="none"><g clip-path="url(#clip0)"><path d="M10.4244 27.3C6.99952 25 4.71624 21.3 6.71411 16.8C8.61684 12.2 16.8937 11.4 20.6041 7C24.029 11.1 24.2192 17.8 21.1749 23.2C19.177 26.8 15.3715 27.3 13.4688 27.3" stroke="#5E5E5E" stroke-width="2" stroke-miterlimit="10"></path><path d="M25.3592 9.9999C26.8814 9.5999 28.4987 9.3999 30.2112 9.3999C40.8665 9.3999 49.5239 18.4999 49.5239 29.6999C49.5239 40.8999 40.8665 49.9999 30.2112 49.9999C19.5559 49.9999 10.8984 40.7999 10.8984 29.5999C10.8984 23.2999 13.6574 17.6999 17.9385 13.9999" stroke="#5E5E5E" stroke-width="2" stroke-miterlimit="10"></path><path d="M49.4322 30.8999H46.5781L44.6754 27.8999H42.7726L41.8213 28.8999H38.9672L34.2103 23.8999H27.5508V21.8999C27.5508 19.6999 29.2632 17.8999 31.3562 17.8999H33.259L35.1617 15.8999H39.9185L41.8213 13.8999" stroke="#5E5E5E" stroke-width="2" stroke-miterlimit="10"></path><path d="M35.1601 42.8999H32.306V35.8999L30.4032 33.8999H26.5978V30.8999L29.4519 27.8999H34.2087L38.9655 32.8999V38.8999L35.1601 42.8999Z" stroke="#5E5E5E" stroke-width="2" stroke-miterlimit="10"></path></g><defs><clipPath id="clip0"><rect width="45.3802" height="44.9" fill="white" transform="translate(5 6)"></rect></clipPath></defs></svg> 