<svg xmlns="http://www.w3.org/2000/svg" width="262" height="263" fill="none" viewBox="0 0 162 163">
    <mask id="wop4diwjaa" width="116" height="45" x="23" y="0" maskUnits="userSpaceOnUse">
        <path fill="#fff" d="M80.922.006c-22.344 0-42.573 9.11-57.216 23.844l20.433 20.56c9.413-9.47 22.419-15.33 36.783-15.33 14.36 0 27.369 5.86 36.778 15.33l20.434-20.56C123.494 9.116 103.266.006 80.922.006z"/>
    </mask>
    <g mask="url(#wop4diwjaa)">
        <path fill="url(#paint0_linear)" fill-rule="evenodd" d="M80.922.006c-22.344 0-42.573 9.11-57.216 23.844l20.433 20.56c9.413-9.47 22.419-15.33 36.783-15.33 14.36 0 27.369 5.86 36.778 15.33l20.434-20.56C123.494 9.116 103.266.006 80.922.006z" clip-rule="evenodd"/>
    </g>
    <mask id="tpzq3igvvb" width="162" height="148" x="0" y="15" maskUnits="userSpaceOnUse">
        <path fill="#fff" d="M.002 15.806H161.84v147.031H.002V15.806z"/>
    </mask>
    <g mask="url(#tpzq3igvvb)">
        <path fill="#fff" fill-rule="evenodd" d="M140.991 135.948c.437-.488.862-.991 1.287-1.494.437-.51.881-1.017 1.306-1.539.314-.387.612-.781.914-1.175.511-.653 1.026-1.306 1.519-1.975.205-.285.399-.57.6-.852.567-.795 1.135-1.595 1.672-2.41.119-.176.227-.356.339-.533.605-.927 1.198-1.865 1.769-2.819.052-.09.104-.188.156-.278.612-1.036 1.202-2.083 1.769-3.149.026-.049.052-.101.078-.154.582-1.104 1.146-2.219 1.675-3.352.019-.038.034-.075.053-.113.529-1.133 1.04-2.282 1.522-3.446.048-.116.089-.236.138-.356.44-1.082.869-2.166 1.265-3.27.097-.278.182-.559.279-.837.325-.942.649-1.885.94-2.842.187-.604.344-1.216.515-1.824.179-.638.37-1.273.53-1.918.295-1.142.556-2.294.795-3.454l.082-.353c1.358-6.648 1.903-13.551 1.533-20.575-.018-.398-.063-.788-.089-1.182-.06-.927-.116-1.855-.209-2.79-.694-7-2.272-13.742-4.612-20.105-.003-.019-.011-.034-.018-.049-.911-2.459-1.929-4.865-3.059-7.207-.09-.184-.187-.364-.28-.552-1.064-2.162-2.216-4.28-3.459-6.329-.171-.278-.35-.548-.526-.822-1.212-1.945-2.492-3.84-3.857-5.672-.217-.285-.448-.563-.665-.848-1.38-1.799-2.824-3.544-4.346-5.215-.213-.232-.433-.454-.649-.683-.601-.65-1.201-1.299-1.821-1.926l-.063.06c-2.899-2.913-5.955-5.668-9.249-8.104l-17.109 23.431c2.38 1.761 4.581 3.754 6.64 5.898.627.653 1.228 1.329 1.817 2.012.493.57.982 1.148 1.452 1.738.57.728 1.123 1.475 1.656 2.233.437.616.866 1.24 1.276 1.874.492.762.959 1.542 1.41 2.335.396.698.787 1.4 1.157 2.117.388.758.753 1.531 1.104 2.308.366.811.72 1.626 1.045 2.455.283.729.548 1.468.802 2.208.313.927.608 1.861.873 2.811.198.706.373 1.415.545 2.132.231.991.436 1.994.611 3.011.135.762.254 1.528.351 2.301.12.931.213 1.858.28 2.785.071.924.123 1.851.142 2.786.018.78.015 1.558 0 2.335-.019 1.028-.071 2.05-.153 3.063-.06.736-.131 1.471-.22 2.2-.116.976-.265 1.944-.437 2.905-.142.773-.291 1.54-.462 2.301-.198.875-.426 1.734-.665 2.59-.231.822-.473 1.64-.742 2.448-.261.77-.541 1.524-.828 2.275-.329.848-.672 1.689-1.041 2.515-.31.694-.642 1.378-.985 2.053-.414.83-.839 1.648-1.302 2.451-.373.661-.769 1.303-1.172 1.945-.477.766-.973 1.524-1.488 2.26-.459.653-.937 1.287-1.425 1.918-.523.672-1.049 1.34-1.601 1.986-.552.649-1.13 1.276-1.716 1.895-.541.582-1.093 1.153-1.66 1.705-.649.627-1.321 1.235-1.996 1.828-.571.495-1.142.983-1.731 1.456-.724.578-1.467 1.13-2.217 1.667-.615.439-1.231.875-1.865 1.288-.757.491-1.533.961-2.317 1.415-.694.402-1.391.796-2.108 1.167-.753.391-1.522.759-2.294 1.111-.806.368-1.612.721-2.44 1.048-.724.289-1.459.555-2.198.811-.917.315-1.843.611-2.783.874-.705.199-1.414.383-2.126.552-.985.233-1.985.439-2.992.616-.758.135-1.519.251-2.287.353-.926.12-1.847.21-2.769.281-.918.071-1.839.12-2.772.143-.772.015-1.548.015-2.317 0-1.022-.023-2.037-.072-3.044-.154-.731-.06-1.462-.132-2.186-.222-.97-.12-1.933-.27-2.888-.443-.768-.138-1.533-.289-2.29-.465-.862-.195-1.72-.424-2.567-.665-.821-.232-1.635-.476-2.437-.75-.764-.259-1.514-.541-2.26-.83-.844-.334-1.68-.676-2.504-1.051-.686-.312-1.362-.646-2.033-.983-.825-.421-1.638-.849-2.44-1.311-.657-.379-1.298-.777-1.933-1.182-.76-.484-1.514-.98-2.246-1.502-.649-.458-1.276-.942-1.902-1.43-.672-.522-1.336-1.055-1.974-1.61-.645-.56-1.272-1.138-1.888-1.727-.578-.544-1.141-1.1-1.69-1.674-.627-.65-1.231-1.325-1.82-2.012-.493-.571-.978-1.141-1.444-1.735-.579-.728-1.127-1.475-1.664-2.233-.437-.616-.862-1.239-1.276-1.873-.489-.762-.952-1.547-1.407-2.335-.399-.698-.787-1.4-1.16-2.117-.388-.759-.75-1.532-1.104-2.309-.366-.811-.713-1.625-1.041-2.455-.284-.728-.552-1.468-.806-2.211-.313-.923-.604-1.858-.87-2.804-.197-.706-.376-1.42-.548-2.136-.227-.991-.433-1.997-.612-3.01-.13-.763-.25-1.528-.35-2.302-.12-.93-.21-1.858-.28-2.785-.067-.924-.12-1.85-.138-2.79-.023-.78-.019-1.557-.004-2.33.022-1.029.075-2.05.153-3.064.063-.739.13-1.471.224-2.2.116-.979.265-1.944.44-2.905.138-.773.287-1.543.459-2.3.198-.876.422-1.735.664-2.587.228-.826.47-1.648.746-2.455.254-.766.534-1.52.821-2.271.328-.849.672-1.69 1.045-2.52.31-.694.641-1.373.98-2.049.415-.83.844-1.648 1.3-2.451.38-.66.772-1.306 1.174-1.948.482-.762.974-1.52 1.493-2.256 1.708-2.437 3.589-4.741 5.678-6.844 2.615-2.631 4.23-6.265 4.23-10.278 0-8.033-6.465-14.538-14.445-14.538-3.988 0-7.603 1.625-10.219 4.256-2.88 2.895-5.532 6.014-7.95 9.321l-.045.045c-.168.233-.32.473-.489.706-.567.796-1.13 1.595-1.671 2.41-.116.176-.224.36-.343.537-.6.927-1.194 1.862-1.758 2.811-.06.098-.115.2-.171.3-.608 1.033-1.198 2.073-1.761 3.132-.026.048-.049.1-.07.15-.587 1.1-1.146 2.218-1.684 3.348-.022.053-.04.105-.067.158-.526 1.122-1.033 2.256-1.507 3.408-.048.12-.093.244-.145.364-.437 1.078-.859 2.159-1.254 3.255-.104.297-.194.593-.298.89-.321.927-.638 1.854-.926 2.796-.179.6-.34 1.209-.51 1.813-.18.646-.374 1.284-.538 1.93-.284 1.126-.537 2.26-.78 3.397-.03.139-.063.274-.09.417C.288 71.682-.253 78.582.116 85.605c.422 8.427 2.127 16.513 4.906 24.074.041.108.086.217.13.33.411 1.111.848 2.215 1.307 3.3.257.611.537 1.205.813 1.805.261.582.507 1.164.783 1.734.43.894.885 1.761 1.344 2.632.141.274.272.552.417.822.56 1.025 1.138 2.031 1.735 3.029.067.113.127.229.198.342.638 1.055 1.302 2.095 1.985 3.119.037.053.07.109.108.166.698 1.036 1.418 2.057 2.16 3.059.034.041.064.086.097.128.713.961 1.448 1.903 2.209 2.826.07.094.142.184.213.274.693.845 1.41 1.667 2.134 2.482.152.169.298.345.455.514.649.717 1.32 1.415 1.996 2.106.242.255.485.518.735.766.585.585 1.182 1.148 1.783 1.711.37.346.727.699 1.097 1.033.492.45 1 .874 1.503 1.31.504.435 1 .874 1.515 1.299.388.319.784.619 1.172.927.649.514 1.298 1.028 1.962 1.524.28.206.567.401.85.608.788.571 1.579 1.134 2.388 1.678.18.12.362.229.541.349.922.604 1.847 1.201 2.795 1.768.09.056.179.105.276.162 1.026.615 2.07 1.212 3.134 1.779.037.022.082.045.123.067 1.104.59 2.22 1.157 3.35 1.697.045.019.09.038.127.056 1.127.534 2.264 1.048 3.414 1.528.119.049.238.09.354.139 1.07.443 2.153.871 3.25 1.269.28.101.56.188.835.285.937.327 1.873.653 2.82.946.598.184 1.202.342 1.806.515.639.18 1.273.375 1.918.54 1.116.289 2.242.541 3.373.781.138.03.272.067.41.097 6.608 1.367 13.465 1.915 20.445 1.543 8.376-.428 16.412-2.139 23.93-4.94.089-.034.179-.075.268-.109 1.123-.424 2.239-.863 3.339-1.336.597-.255 1.176-.533 1.765-.803.59-.267 1.179-.526 1.754-.804.884-.431 1.746-.886 2.604-1.344.276-.146.556-.281.824-.431 1.022-.556 2.019-1.138 3.007-1.734.112-.072.228-.136.343-.203 1.06-.65 2.101-1.325 3.123-2.016.049-.034.093-.06.142-.09 1.033-.702 2.044-1.434 3.044-2.181l.123-.09c.952-.717 1.881-1.453 2.795-2.207.097-.083.194-.158.291-.237.843-.698 1.664-1.423 2.47-2.151.167-.15.339-.293.503-.447.713-.653 1.403-1.325 2.09-2.004.253-.252.514-.496.768-.751.575-.582 1.134-1.179 1.686-1.779.351-.372.702-.74 1.041-1.119z" clip-rule="evenodd"/>
    </g>
    <defs>
        <linearGradient id="paint0_linear" x1="103.512" x2="-7.205" y1="44.41" y2="44.41" gradientUnits="userSpaceOnUse">
            <stop stop-color="#fff"/>
            <stop offset="1" stop-color="#fff" stop-opacity=".1"/>
        </linearGradient>
    </defs>
</svg>
