<?xml version="1.0" encoding="UTF-8"?> <svg xmlns="http://www.w3.org/2000/svg" width="74" height="74" viewBox="0 0 74 74" fill="none"><circle cx="37" cy="37" r="37" fill="white"></circle><g clip-path="url(#clip0)"><path d="M38.3043 46.1309L38.3043 46.1308L38.296 46.1381C38.1334 46.2823 37.8844 46.2976 37.7032 46.1697C37.703 46.1696 37.7028 46.1694 37.7026 46.1693L32.3151 42.3378L32.3125 42.3359L28.1679 39.4153C28.1677 39.4152 28.1676 39.4151 28.1674 39.4149C27.9845 39.285 27.9184 39.0447 27.9944 38.8524C28.0117 38.8158 28.0251 38.7796 28.0354 38.7447C28.8596 36.6424 29.9235 34.6364 31.1956 32.778L31.1978 32.7747C31.3016 32.6214 31.4069 32.4727 31.5223 32.3098C34.3228 28.3774 39.4768 24.9013 43.9013 22.7219C44.3463 22.5209 44.7626 22.3241 45.1628 22.1349C46.2915 21.6013 47.2923 21.1283 48.4477 20.7898C48.5205 22.0252 48.4113 23.153 48.2871 24.4352C48.2476 24.8426 48.2067 25.2656 48.1696 25.7126C47.5987 30.6066 46.055 36.6347 43.2943 40.5953C43.2938 40.596 43.2933 40.5967 43.2928 40.5974L42.9537 41.0761C41.6089 42.9322 40.0409 44.6359 38.3043 46.1309Z" stroke="#0089CF" stroke-width="1.5"></path><line x1="31.2677" y1="44.997" x2="24.8163" y2="54.1044" stroke="#0089CF" stroke-width="1.5"></line><line x1="28.3314" y1="42.9169" x2="24.0446" y2="48.9686" stroke="#0089CF" stroke-width="1.5"></line><line x1="34.2034" y1="47.0761" x2="29.9167" y2="53.1277" stroke="#0089CF" stroke-width="1.5"></line><path d="M32.6777 29.2584L26.8758 29.8276L19.4057 40.3731L23.7048 39.6392" stroke="#0089CF" stroke-width="1.5"></path><path d="M45.7399 38.5121L47.1279 44.1742L39.6578 54.7198L38.9239 50.4207" stroke="#0089CF" stroke-width="1.5"></path></g><defs><clipPath id="clip0"><rect width="49" height="49" fill="white" transform="translate(12.5 12.5)"></rect></clipPath></defs></svg> 