<?xml version="1.0" encoding="UTF-8"?> <svg xmlns="http://www.w3.org/2000/svg" width="74" height="74" viewBox="0 0 74 74" fill="none"><circle cx="37" cy="37" r="37" fill="white"></circle><path d="M15.9998 25.4826C22.5958 20.4344 40.2303 13.3671 57.9998 25.4826" stroke="#0089CF" stroke-width="2"></path><path d="M15.9998 48.5165C22.5958 53.5646 40.2303 60.632 57.9998 48.5165" stroke="#0089CF" stroke-width="2"></path><circle cx="36.9997" cy="36.9997" r="11.5407" stroke="#0089CF" stroke-width="2"></circle><path d="M33.1622 36.9994C33.1622 37.9304 33.5007 38.8297 34.1146 39.5296C34.7284 40.2296 35.5758 40.6826 36.4989 40.8041C37.4219 40.9256 38.3577 40.7074 39.1318 40.1902C39.9059 39.6729 40.4656 38.8919 40.7065 37.9926C40.9475 37.0933 40.8533 36.1371 40.4415 35.3021C40.0298 34.4671 39.3285 33.8103 38.4683 33.454C37.6082 33.0977 36.6478 33.0663 35.7662 33.3655C34.8846 33.6648 34.1419 34.2744 33.6764 35.0806" stroke="#0089CF" stroke-width="2"></path></svg> 