<?xml version="1.0" encoding="UTF-8"?> <svg xmlns="http://www.w3.org/2000/svg" width="48" height="48" viewBox="0 0 48 48" fill="none"><circle cx="24" cy="24" r="19" stroke="#0089CF" stroke-width="2" stroke-linecap="round"></circle><path d="M30.0138 31.8354L30.0181 31.832C30.6822 31.302 31.2152 30.6261 31.5757 29.8567C31.9362 29.0874 32.1146 28.2453 32.097 27.3959C32.0794 26.5464 31.8663 25.7125 31.4743 24.9587C31.0822 24.205 30.5217 23.5517 29.8363 23.0496C28.1475 21.8172 26.859 20.1536 26.0065 18.1052C25.6803 17.3125 25.1729 16.6074 24.5249 16.0463C23.8769 15.4852 23.1064 15.0839 22.2753 14.8744C22.0522 14.8171 21.8258 14.7735 21.5974 14.7438C20.6941 14.6294 19.7765 14.7396 18.9259 15.0647C18.0754 15.3897 17.3182 15.9195 16.7214 16.6072C16.1246 17.2949 15.7067 18.1192 15.5047 19.007C15.3026 19.8948 15.3227 20.8188 15.5632 21.697C17.3581 28.2129 21.6608 31.2331 24.0659 32.4535C25.0123 32.9308 26.0757 33.1262 27.1299 33.0168C28.1841 32.9073 29.1848 32.4975 30.0129 31.8361L30.0138 31.8354Z" stroke="#0089CF" stroke-width="2" stroke-linecap="round"></path><path d="M21.1237 14.2035L21.0956 12" stroke="#0089CF" stroke-width="2" stroke-linecap="round"></path><path d="M23.3679 15.0744L24.3072 13.0809" stroke="#0089CF" stroke-width="2" stroke-linecap="round"></path><path d="M25.7081 16.8137L27.332 15.324" stroke="#0089CF" stroke-width="2" stroke-linecap="round"></path><path d="M27.0924 19.3212L29.0143 18.243" stroke="#0089CF" stroke-width="2" stroke-linecap="round"></path><path d="M29.5646 22.1868L31.1218 20.6275" stroke="#0089CF" stroke-width="2" stroke-linecap="round"></path><path d="M31.6187 24.3044L33.4149 23.0277" stroke="#0089CF" stroke-width="2" stroke-linecap="round"></path><path d="M32.3534 27.2078L34.5414 26.9452" stroke="#0089CF" stroke-width="2" stroke-linecap="round"></path><path d="M31.9589 30.4391L33.9169 31.4502" stroke="#0089CF" stroke-width="2" stroke-linecap="round"></path><path d="M30.009 32.5083L31.3451 34.2608" stroke="#0089CF" stroke-width="2" stroke-linecap="round"></path><path d="M27.0961 33.5544L27.359 35.7423" stroke="#0089CF" stroke-width="2" stroke-linecap="round"></path><path d="M24.5046 33.2083L23.7692 35.2857" stroke="#0089CF" stroke-width="2" stroke-linecap="round"></path><path d="M21.5048 31.6579L20.1791 33.4183" stroke="#0089CF" stroke-width="2" stroke-linecap="round"></path><path d="M19.3896 29.5838L17.8309 31.1416" stroke="#0089CF" stroke-width="2" stroke-linecap="round"></path><path d="M17.2747 26.903L15.3665 28.5906" stroke="#0089CF" stroke-width="2" stroke-linecap="round"></path><path d="M15.8687 24.5205L13.8195 25.3312" stroke="#0089CF" stroke-width="2" stroke-linecap="round"></path><path d="M18.1267 14.8593L17.0748 12.9228" stroke="#0089CF" stroke-width="2" stroke-linecap="round"></path><path d="M16.0332 16.5986L14.3173 15.2159" stroke="#0089CF" stroke-width="2" stroke-linecap="round"></path><path d="M15.1634 18.9598L13 18.6789" stroke="#0089CF" stroke-width="2" stroke-linecap="round"></path><path d="M15.498 21.8493L13.333 22.2605" stroke="#0089CF" stroke-width="2" stroke-linecap="round"></path><path d="M37 11L11 37" stroke="#0089CF" stroke-width="2" stroke-linecap="round"></path></svg> 