<?xml version="1.0" encoding="UTF-8"?> <svg xmlns="http://www.w3.org/2000/svg" width="60" height="60" viewBox="0 0 60 60" fill="none"><path d="M17 35.5C18.9171 33.2634 23.958 30.0774 29.3047 34.3967C29.7633 34.7672 30.3277 35 30.9172 35H38C39.3807 35 40.5 36.1193 40.5 37.5V37.5C40.5 38.8807 39.3807 40 38 40H28.5M17 48.5H38.9775C41.1913 48.5 43.2722 47.4434 44.5784 45.6559L50.4487 37.6229C51.3266 36.4215 51.1411 34.7484 50.0212 33.7686V33.7686C48.8838 32.7734 47.1696 32.8304 46.1009 33.8991L40.0893 39.9107C40.0321 39.9679 39.9545 40 39.8736 40H35" stroke="#0089CF" stroke-width="2" stroke-linecap="round"></path><path d="M9.5 50.3V33.2C9.5 33.0895 9.58954 33 9.7 33H15C16.1046 33 17 33.8954 17 35V48.5C17 49.6046 16.1046 50.5 15 50.5H9.7C9.58954 50.5 9.5 50.4105 9.5 50.3Z" stroke="#0089CF" stroke-width="2" stroke-linecap="round"></path><path d="M21.2973 32.3773C18.6533 29.9129 17 26.3995 17 22.5C17 15.0442 23.0442 9 30.5 9C37.9558 9 44 15.0442 44 22.5C44 28.148 40.5315 32.986 35.6084 35" stroke="#0089CF" stroke-width="2" stroke-linecap="round"></path><path d="M29.2483 15.9034C29.2303 15.3613 29.665 14.912 30.2075 14.912C30.7499 14.912 31.1846 15.3613 31.1666 15.9034L31.1331 16.9125C31.1166 17.4118 30.707 17.808 30.2075 17.808C29.7079 17.808 29.2983 17.4118 29.2818 16.9125L29.2483 15.9034ZM29.2809 27.8955C29.2979 27.4005 29.7042 27.008 30.1995 27.008C30.6948 27.008 31.101 27.4005 31.1181 27.8955L31.1495 28.8086C31.1681 29.3461 30.7373 29.792 30.1995 29.792C29.6616 29.792 29.2308 29.3461 29.2494 28.8086L29.2809 27.8955ZM33.0597 19.6861C32.5952 19.9531 32.0136 19.7654 31.6635 19.36C31.4715 19.1253 31.2581 18.9493 31.0235 18.832C30.7888 18.704 30.5275 18.64 30.2395 18.64C29.9515 18.64 29.7115 18.688 29.5195 18.784C29.3381 18.8693 29.1995 18.9867 29.1035 19.136C29.0181 19.2853 28.9755 19.456 28.9755 19.648C28.9755 19.968 29.0928 20.224 29.3275 20.416C29.5728 20.608 29.8875 20.7787 30.2715 20.928C30.6661 21.0667 31.0875 21.2213 31.5355 21.392C31.9195 21.5307 32.2821 21.7013 32.6235 21.904C32.9648 22.096 33.2688 22.3307 33.5355 22.608C33.8021 22.8853 34.0101 23.2107 34.1595 23.584C34.3195 23.9467 34.3995 24.3733 34.3995 24.864C34.3995 25.5573 34.2235 26.1547 33.8715 26.656C33.5195 27.1467 33.0235 27.52 32.3835 27.776C31.7435 28.032 30.9808 28.16 30.0955 28.16C29.4235 28.16 28.7835 28.032 28.1755 27.776C27.5781 27.5093 27.0501 27.1627 26.5915 26.736C26.4027 26.5604 26.2328 26.3775 26.082 26.1874C25.7171 25.7276 25.8991 25.0826 26.3786 24.7441C26.9593 24.3342 27.7487 24.5228 28.2156 25.0588C28.2289 25.074 28.2422 25.0891 28.2555 25.104C28.5221 25.4027 28.8101 25.6267 29.1195 25.776C29.4395 25.9253 29.7915 26 30.1755 26C30.4955 26 30.7515 25.9573 30.9435 25.872C31.1461 25.7867 31.2955 25.664 31.3915 25.504C31.4981 25.3333 31.5515 25.1307 31.5515 24.896C31.5515 24.5973 31.4448 24.352 31.2315 24.16C31.0288 23.9573 30.7515 23.7813 30.3995 23.632C30.0581 23.4827 29.6688 23.3227 29.2315 23.152C28.9541 23.056 28.6395 22.9227 28.2875 22.752C27.9461 22.5707 27.6155 22.3413 27.2955 22.064C26.9861 21.7867 26.7248 21.456 26.5115 21.072C26.3088 20.6773 26.2075 20.208 26.2075 19.664C26.2075 19.12 26.3728 18.6187 26.7035 18.16C27.0448 17.7013 27.5088 17.3333 28.0955 17.056C28.6928 16.7787 29.3808 16.64 30.1595 16.64C30.9381 16.64 31.5835 16.752 32.0955 16.976C32.6181 17.2 33.0501 17.4933 33.3915 17.856C33.4602 17.9291 33.5266 18.003 33.5907 18.0778C34.0006 18.5569 33.8011 19.2599 33.2545 19.5741L33.0597 19.6861Z" fill="#0089CF"></path></svg> 