<?xml version="1.0" encoding="UTF-8"?> <svg xmlns="http://www.w3.org/2000/svg" width="48" height="48" viewBox="0 0 48 48" fill="none"><path d="M39.6512 20.0001L13 20.0001M13 8.00008L39.6512 8.00008" stroke="#0089CF" stroke-width="2" stroke-linecap="round"></path><ellipse cx="39.5" cy="14" rx="6" ry="1.5" transform="rotate(90 39.5 14)" stroke="#0089CF" stroke-width="2" stroke-linecap="round"></ellipse><path d="M13 20C12.4477 20 12 17.3137 12 14C12 10.6863 12.4477 8.00002 13 8.00002" stroke="#0089CF" stroke-width="2" stroke-linecap="round"></path><path d="M28.5 39L13 39M13 27L28.5 27" stroke="#0089CF" stroke-width="2" stroke-linecap="round"></path><path d="M28.5 39C27.6716 39 27 36.0971 27 32.8605C27 29.6238 27.6716 27 28.5 27C29.3284 27 30 29.6238 30 32.8605C30 36.0971 29.3284 39 28.5 39Z" stroke="#0089CF" stroke-width="2" stroke-linecap="round"></path><path d="M13 39C12.4477 39 12 36.0971 12 32.8605C12 29.6238 12.4477 27 13 27" stroke="#0089CF" stroke-width="2" stroke-linecap="round"></path><path d="M6 4L6 44" stroke="#0089CF" stroke-width="2" stroke-linecap="round"></path></svg> 