<?xml version="1.0" encoding="UTF-8"?> <svg xmlns="http://www.w3.org/2000/svg" width="60" height="60" viewBox="0 0 60 60" fill="none"><path d="M29.7621 15C31.2018 14.0068 32.5651 12.8873 33.7474 11.5901C34.5489 10.8033 35.7512 10.8033 36.5527 11.5901C37.9152 13.0064 39.438 14.344 41.1212 15.4456C42.4036 16.1537 43.7661 16.6258 45.2088 16.7832C46.5713 17.0192 47.9339 17.1766 49.2964 17.2553C50.333 17.3335 51.1317 18.1128 50.9819 19.1281C50.9804 19.1384 50.9795 19.1488 50.9795 19.1592V37.1619C50.8994 39.2864 50.178 41.4108 48.8956 43.2205C47.6133 45.1089 46.0103 46.7612 44.247 48.1775C41.6822 50.3019 38.7968 52.1903 35.8313 53.764C35.3504 54.0787 34.7092 54.0787 34.1482 53.764C31.1827 52.1903 28.3775 50.3019 25.7325 48.1775C23.9693 46.7612 22.3663 45.0302 21.0839 43.2205C19.8015 41.4895 19.0801 39.3651 19 37.1619V28.1528" stroke="#0089CF" stroke-width="2" stroke-linecap="round"></path><rect x="27" y="29" width="16" height="11" rx="0.2" stroke="#0089CF" stroke-width="2" stroke-linecap="round"></rect><path d="M31 29V28C31 25.7909 32.7909 24 35 24V24C37.2091 24 39 25.7909 39 28V29" stroke="#0089CF" stroke-width="2" stroke-linecap="round"></path><circle cx="20" cy="18" r="10" stroke="#0089CF" stroke-width="2" stroke-linecap="round"></circle><path d="M16 18.2294L18.4673 20.4927C18.5487 20.5674 18.6752 20.5619 18.7499 20.4805L23.4117 15.3985" stroke="#0089CF" stroke-width="2" stroke-linecap="round"></path></svg> 