<?xml version="1.0" encoding="UTF-8"?> <svg xmlns="http://www.w3.org/2000/svg" width="48" height="48" viewBox="0 0 48 48" fill="none"><circle cx="24" cy="20" r="13" stroke="#0089CF" stroke-width="2" stroke-linecap="round"></circle><path d="M29.9082 25.3938C30.9576 24.2444 31.6489 22.8138 31.8974 21.2773C32.1459 19.7409 31.9408 18.1653 31.3073 16.7436C30.6737 15.322 29.6392 14.116 28.3306 13.2735C27.0219 12.4309 25.4959 11.9885 23.9395 12.0002C22.3831 12.012 20.864 12.4775 19.5682 13.3397C18.2724 14.202 17.2563 15.4234 16.6443 16.8545C16.0324 18.2856 15.8511 19.8641 16.1228 21.3966C16.3946 22.9291 17.1074 24.3491 18.1741 25.4826" stroke="#0089CF" stroke-width="2" stroke-linecap="round"></path><path d="M24 10V12" stroke="#0089CF" stroke-width="2" stroke-linecap="round"></path><path d="M30.8943 12.8557L29.75 14M17.1057 26.6443L18 25.75" stroke="#0089CF" stroke-width="2" stroke-linecap="round"></path><path d="M33.75 19.75L32 19.75M14.25 19.75L16 19.75" stroke="#0089CF" stroke-width="2" stroke-linecap="round"></path><path d="M30.8943 26.6443L29.75 25.5M17.1057 12.8557L18.4352 14.1852" stroke="#0089CF" stroke-width="2" stroke-linecap="round"></path><circle cx="24" cy="20" r="2" stroke="#0089CF" stroke-width="2" stroke-linecap="round"></circle><path d="M22 21.7678L20.75 23.0178" stroke="#0089CF" stroke-width="2" stroke-linecap="round"></path><path d="M20 33V41C20 41.5523 19.5523 42 19 42H10" stroke="#0089CF" stroke-width="2" stroke-linecap="round"></path><path d="M28 33V41C28 41.5523 28.4477 42 29 42H38" stroke="#0089CF" stroke-width="2" stroke-linecap="round"></path></svg> 