<?xml version="1.0" encoding="UTF-8"?> <svg xmlns="http://www.w3.org/2000/svg" width="48" height="48" viewBox="0 0 48 48" fill="none"><path d="M11.0588 28.0588C12.8631 25.9538 17.6076 22.9552 22.6397 27.0204C23.0713 27.3691 23.6025 27.5882 24.1574 27.5882H30.8235C32.123 27.5882 33.1765 28.6417 33.1765 29.9412V29.9412C33.1765 31.2407 32.123 32.2941 30.8235 32.2941H21.8824M11.0588 40.2941H31.7435C33.8271 40.2941 35.7856 39.2996 37.0149 37.6174L42.5399 30.0568C43.3662 28.9261 43.1916 27.3515 42.1377 26.4293V26.4293C41.0671 25.4926 39.4537 25.5463 38.4479 26.5521L32.79 32.21C32.7361 32.2639 32.6631 32.2941 32.587 32.2941H28" stroke="#0089CF" stroke-width="2" stroke-linecap="round"></path><path d="M4 41.9765V25.9059C4 25.7954 4.08954 25.7059 4.2 25.7059H9.05882C10.1634 25.7059 11.0588 26.6013 11.0588 27.7059V40.1765C11.0588 41.2811 10.1634 42.1765 9.05882 42.1765H4.2C4.08954 42.1765 4 42.0869 4 41.9765Z" stroke="#0089CF" stroke-width="2" stroke-linecap="round"></path><path d="M19.5294 19.3336L21.8429 21.4558C21.9243 21.5305 22.0509 21.525 22.1255 21.4436L26.5051 16.6692" stroke="#0089CF" stroke-width="2" stroke-linecap="round"></path><path d="M33.1028 28.2728C34.008 26.9657 34.5172 25.4312 34.5738 23.8967V10.8974C34.5738 10.8872 34.5746 10.877 34.576 10.8669C34.6792 10.1355 34.1161 9.57461 33.3857 9.51816C32.4239 9.46133 31.4621 9.34767 30.5003 9.17717C29.4819 9.06351 28.5202 8.72251 27.6149 8.21102C26.4269 7.41537 25.3519 6.44922 24.3901 5.42624C23.8244 4.85792 22.9757 4.85792 22.41 5.42624C21.5754 6.36322 20.613 7.17183 19.5968 7.88919C17.5188 9.30217 15.3792 9.52282 13.4999 9.55196C12.6716 9.56481 12 10.2249 12 11.0534V17.3894V23.8967C12.0303 24.7479 12.19 25.5828 12.4706 26.3666M12.4706 26.3666C12.5269 26.5241 12.5882 26.6795 12.6542 26.8325L12.4706 26.3666Z" stroke="#0089CF" stroke-width="2" stroke-linecap="round"></path></svg> 