<?xml version="1.0" encoding="UTF-8"?> <svg xmlns="http://www.w3.org/2000/svg" width="60" height="60" viewBox="0 0 60 60" fill="none"><path d="M4 51H56" stroke="#0089CF" stroke-width="2" stroke-linecap="round"></path><mask id="path-2-outside-1_324_1597" maskUnits="userSpaceOnUse" x="3.95558" y="5.82279" width="51.3971" height="40.4255" fill="black"><rect fill="white" x="3.95558" y="5.82279" width="51.3971" height="40.4255"></rect><path fill-rule="evenodd" clip-rule="evenodd" d="M35.173 38.921C35.1208 39.0244 35.1125 39.1438 35.1492 39.252C35.1487 39.2517 35.1481 39.2522 35.1483 39.2528C35.1856 39.3613 35.2642 39.4494 35.3681 39.4995L45.2542 44.2571C45.4711 44.3615 45.7353 44.2719 45.8439 44.057L48.1325 39.5266C48.2093 39.3754 48.1859 39.1946 48.0834 39.0637C48.0738 39.0523 47.1921 37.941 47.4329 36.552C47.6164 35.4935 48.3969 34.5221 49.752 33.6651C49.7908 33.6406 49.8258 33.6102 49.8548 33.5755C49.9072 33.5132 54.9476 27.3122 48.901 17.9488C48.8291 17.8419 47.112 15.3162 43.5586 13.5425C43.4548 13.4904 43.3331 13.4821 43.221 13.519C43.1089 13.5559 43.016 13.6359 42.9635 13.7399L40.9821 17.6629C40.8851 17.8542 40.9425 18.0843 41.1182 18.2062C41.1496 18.2276 44.2303 20.4175 43.4826 23.0733L42.7849 24.4545L34.3055 20.3652C34.0151 19.3408 33.2995 18.4797 32.3339 17.9827L15.0638 9.09616C14.3525 8.73073 13.54 8.68908 12.8357 8.98083C10.4413 9.97307 9.44374 12.0352 10.0991 14.6383C10.1178 14.7131 10.1396 14.7857 10.164 14.8575C10.3997 15.5523 10.8961 16.1285 11.5522 16.4599L28.9112 25.2084C29.8649 25.6884 30.9344 25.7588 31.902 25.403L40.3552 29.4746C40.5158 29.9498 40.9462 31.4943 40.2692 32.7895C39.7986 33.6907 38.8691 34.316 37.5074 34.6472C37.3807 34.6784 37.2732 34.7627 37.2154 34.8782L35.173 38.921ZM31.4755 24.7952C31.4827 24.7721 31.4918 24.7492 31.5032 24.7268C31.6117 24.5119 31.8759 24.4223 32.0928 24.5268L40.9057 28.7717C41.0009 28.8171 41.0759 28.8959 41.1162 28.9927C41.1171 28.9952 41.1186 28.999 41.1206 29.0041C41.1965 29.1998 42.0179 31.3174 41.0528 33.1728C40.4846 34.2655 39.4272 35.0266 37.9099 35.4359L36.1548 38.9103L45.2549 43.2893L47.2298 39.3792C46.9248 38.9136 46.3326 37.7976 46.5645 36.4279C46.7859 35.1289 47.679 33.9683 49.2203 32.9782C49.7032 32.3619 53.6308 26.8939 48.162 18.4249L48.1612 18.4236C48.1175 18.3606 46.5908 16.1549 43.5472 14.5195L41.9287 17.7244C42.7787 18.4154 45.0898 20.5981 44.2988 23.3751L43.3743 25.2221C43.3221 25.3254 43.2311 25.4042 43.1199 25.4419C43.0087 25.4797 42.8885 25.4725 42.7842 25.4223L33.788 21.084C33.6512 21.0182 33.5657 20.8907 33.5485 20.7517C33.5275 20.7361 33.5117 20.7134 33.505 20.686C33.2944 19.8596 32.7301 19.1571 31.9518 18.7571L14.6817 9.87055C14.1941 9.61992 13.6422 9.58922 13.167 9.78621C11.7597 10.3692 10.2292 11.6484 10.9296 14.432C11.0673 14.9761 11.4312 15.4316 11.9277 15.6826L29.2866 24.4306C29.8079 24.6927 30.3714 24.7988 30.9129 24.7463C31.1013 24.7281 31.2959 24.7435 31.4755 24.7952Z"></path></mask><path fill-rule="evenodd" clip-rule="evenodd" d="M35.173 38.921C35.1208 39.0244 35.1125 39.1438 35.1492 39.252C35.1487 39.2517 35.1481 39.2522 35.1483 39.2528C35.1856 39.3613 35.2642 39.4494 35.3681 39.4995L45.2542 44.2571C45.4711 44.3615 45.7353 44.2719 45.8439 44.057L48.1325 39.5266C48.2093 39.3754 48.1859 39.1946 48.0834 39.0637C48.0738 39.0523 47.1921 37.941 47.4329 36.552C47.6164 35.4935 48.3969 34.5221 49.752 33.6651C49.7908 33.6406 49.8258 33.6102 49.8548 33.5755C49.9072 33.5132 54.9476 27.3122 48.901 17.9488C48.8291 17.8419 47.112 15.3162 43.5586 13.5425C43.4548 13.4904 43.3331 13.4821 43.221 13.519C43.1089 13.5559 43.016 13.6359 42.9635 13.7399L40.9821 17.6629C40.8851 17.8542 40.9425 18.0843 41.1182 18.2062C41.1496 18.2276 44.2303 20.4175 43.4826 23.0733L42.7849 24.4545L34.3055 20.3652C34.0151 19.3408 33.2995 18.4797 32.3339 17.9827L15.0638 9.09616C14.3525 8.73073 13.54 8.68908 12.8357 8.98083C10.4413 9.97307 9.44374 12.0352 10.0991 14.6383C10.1178 14.7131 10.1396 14.7857 10.164 14.8575C10.3997 15.5523 10.8961 16.1285 11.5522 16.4599L28.9112 25.2084C29.8649 25.6884 30.9344 25.7588 31.902 25.403L40.3552 29.4746C40.5158 29.9498 40.9462 31.4943 40.2692 32.7895C39.7986 33.6907 38.8691 34.316 37.5074 34.6472C37.3807 34.6784 37.2732 34.7627 37.2154 34.8782L35.173 38.921ZM31.4755 24.7952C31.4827 24.7721 31.4918 24.7492 31.5032 24.7268C31.6117 24.5119 31.8759 24.4223 32.0928 24.5268L40.9057 28.7717C41.0009 28.8171 41.0759 28.8959 41.1162 28.9927C41.1171 28.9952 41.1186 28.999 41.1206 29.0041C41.1965 29.1998 42.0179 31.3174 41.0528 33.1728C40.4846 34.2655 39.4272 35.0266 37.9099 35.4359L36.1548 38.9103L45.2549 43.2893L47.2298 39.3792C46.9248 38.9136 46.3326 37.7976 46.5645 36.4279C46.7859 35.1289 47.679 33.9683 49.2203 32.9782C49.7032 32.3619 53.6308 26.8939 48.162 18.4249L48.1612 18.4236C48.1175 18.3606 46.5908 16.1549 43.5472 14.5195L41.9287 17.7244C42.7787 18.4154 45.0898 20.5981 44.2988 23.3751L43.3743 25.2221C43.3221 25.3254 43.2311 25.4042 43.1199 25.4419C43.0087 25.4797 42.8885 25.4725 42.7842 25.4223L33.788 21.084C33.6512 21.0182 33.5657 20.8907 33.5485 20.7517C33.5275 20.7361 33.5117 20.7134 33.505 20.686C33.2944 19.8596 32.7301 19.1571 31.9518 18.7571L14.6817 9.87055C14.1941 9.61992 13.6422 9.58922 13.167 9.78621C11.7597 10.3692 10.2292 11.6484 10.9296 14.432C11.0673 14.9761 11.4312 15.4316 11.9277 15.6826L29.2866 24.4306C29.8079 24.6927 30.3714 24.7988 30.9129 24.7463C31.1013 24.7281 31.2959 24.7435 31.4755 24.7952Z" fill="#0089CF"></path><path d="M35.1492 39.252L34.8885 39.7924L36.1771 40.4141L35.7174 39.0592L35.1492 39.252ZM35.173 38.921L35.7086 39.1916L35.7086 39.1916L35.173 38.921ZM35.1483 39.2528L35.7158 39.058L35.7156 39.0572L35.1483 39.2528ZM35.3681 39.4995L35.1077 40.04L35.1079 40.0401L35.3681 39.4995ZM45.2542 44.2571L45.5146 43.7165L45.5144 43.7164L45.2542 44.2571ZM45.8439 44.057L45.3083 43.7865L45.3083 43.7865L45.8439 44.057ZM48.1325 39.5266L47.5976 39.2548L47.597 39.256L48.1325 39.5266ZM48.0834 39.0637L48.556 38.694L48.5492 38.6853L48.5421 38.6768L48.0834 39.0637ZM47.4329 36.552L46.8417 36.4495L46.8417 36.4495L47.4329 36.552ZM49.752 33.6651L49.4322 33.1574L49.4313 33.158L49.752 33.6651ZM49.8548 33.5755L49.3956 33.1894L49.3949 33.1902L49.8548 33.5755ZM48.901 17.9488L49.4051 17.6233L49.3989 17.6141L48.901 17.9488ZM43.5586 13.5425L43.2894 14.0787L43.2906 14.0793L43.5586 13.5425ZM43.221 13.519L43.4086 14.0889L43.4086 14.0889L43.221 13.519ZM42.9635 13.7399L42.4279 13.4694L42.4279 13.4694L42.9635 13.7399ZM40.9821 17.6629L41.5172 17.9344L41.5177 17.9334L40.9821 17.6629ZM41.1182 18.2062L40.7763 18.6992L40.7796 18.7015L41.1182 18.2062ZM43.4826 23.0733L44.0182 23.3439L44.0444 23.2919L44.0602 23.2359L43.4826 23.0733ZM42.7849 24.4545L42.5243 24.9949L43.0548 25.2508L43.3205 24.725L42.7849 24.4545ZM34.3055 20.3652L33.7282 20.5288L33.8018 20.7885L34.0448 20.9057L34.3055 20.3652ZM32.3339 17.9827L32.6085 17.4492L32.6084 17.4492L32.3339 17.9827ZM15.0638 9.09616L15.3383 8.56265L15.3379 8.56248L15.0638 9.09616ZM12.8357 8.98083L12.6061 8.4265L12.606 8.42654L12.8357 8.98083ZM10.0991 14.6383L10.6812 14.4929L10.6809 14.4918L10.0991 14.6383ZM10.164 14.8575L9.59576 15.0502L9.59576 15.0502L10.164 14.8575ZM11.5522 16.4599L11.2818 16.9954L11.2822 16.9957L11.5522 16.4599ZM28.9112 25.2084L28.6412 25.7442L28.6415 25.7444L28.9112 25.2084ZM31.902 25.403L32.1624 24.8624L31.9334 24.7522L31.6949 24.8399L31.902 25.403ZM40.3552 29.4746L40.9236 29.2825L40.8428 29.0435L40.6155 28.934L40.3552 29.4746ZM40.2692 32.7895L39.7375 32.5116L39.7374 32.5118L40.2692 32.7895ZM37.5074 34.6472L37.3656 34.0642L37.3642 34.0646L37.5074 34.6472ZM37.2154 34.8782L37.7509 35.1487L37.7517 35.1471L37.2154 34.8782ZM31.4755 24.7952L31.3097 25.3718L31.8757 25.5346L32.049 24.9718L31.4755 24.7952ZM31.5032 24.7268L32.0387 24.9974L32.0387 24.9974L31.5032 24.7268ZM32.0928 24.5268L31.8324 25.0674L31.8324 25.0674L32.0928 24.5268ZM40.9057 28.7717L40.6453 29.3122L40.6473 29.3132L40.9057 28.7717ZM41.1162 28.9927L41.678 28.7821L41.6743 28.772L41.6701 28.7621L41.1162 28.9927ZM41.1206 29.0041L40.5612 29.2211L40.5612 29.2211L41.1206 29.0041ZM41.0528 33.1728L40.5205 32.8959L40.5205 32.896L41.0528 33.1728ZM37.9099 35.4359L37.7536 34.8566L37.4951 34.9264L37.3744 35.1654L37.9099 35.4359ZM36.1548 38.9103L35.6192 38.6397L35.3434 39.1857L35.8946 39.4509L36.1548 38.9103ZM45.2549 43.2893L44.9948 43.83L45.5252 44.0852L45.7905 43.5598L45.2549 43.2893ZM47.2298 39.3792L47.7653 39.6497L47.9216 39.3404L47.7317 39.0505L47.2298 39.3792ZM46.5645 36.4279L45.973 36.3271L45.9729 36.3278L46.5645 36.4279ZM49.2203 32.9782L49.5446 33.483L49.63 33.4282L49.6926 33.3483L49.2203 32.9782ZM48.162 18.4249L48.6661 18.0994L48.6608 18.0912L48.6552 18.0831L48.162 18.4249ZM48.1612 18.4236L47.6678 18.7651L47.668 18.7654L48.1612 18.4236ZM43.5472 14.5195L43.8312 13.991L43.2891 13.6997L43.0117 14.249L43.5472 14.5195ZM41.9287 17.7244L41.3931 17.4539L41.1753 17.8852L41.5502 18.19L41.9287 17.7244ZM44.2988 23.3751L44.8354 23.6437L44.8605 23.5935L44.8759 23.5395L44.2988 23.3751ZM43.3743 25.2221L43.9099 25.4926L43.9109 25.4906L43.3743 25.2221ZM42.7842 25.4223L42.5236 25.9627L42.5238 25.9628L42.7842 25.4223ZM33.788 21.084L34.0486 20.5436L34.0484 20.5435L33.788 21.084ZM33.5485 20.7517L34.1439 20.6777L34.1124 20.424L33.9076 20.271L33.5485 20.7517ZM33.505 20.686L34.0877 20.543L34.0865 20.5379L33.505 20.686ZM31.9518 18.7571L31.6773 19.2906L31.6775 19.2907L31.9518 18.7571ZM14.6817 9.87055L14.9562 9.33704L14.956 9.33693L14.6817 9.87055ZM13.167 9.78621L13.3966 10.3405L13.3967 10.3405L13.167 9.78621ZM10.9296 14.432L10.3477 14.5784L10.3479 14.5792L10.9296 14.432ZM11.9277 15.6826L11.6571 16.2181L11.6577 16.2184L11.9277 15.6826ZM29.2866 24.4306L29.0165 24.9664L29.0171 24.9667L29.2866 24.4306ZM30.9129 24.7463L30.855 24.1491L30.9129 24.7463ZM35.7174 39.0592C35.7327 39.1043 35.7287 39.1518 35.7086 39.1916L34.6375 38.6505C34.5129 38.897 34.4923 39.1834 34.581 39.4448L35.7174 39.0592ZM35.7156 39.0572C35.8899 39.5628 35.3666 40.0231 34.8885 39.7924L35.4099 38.7116C34.9308 38.4804 34.4064 38.9416 34.5811 39.4483L35.7156 39.0572ZM35.6285 38.9589C35.6678 38.9778 35.7005 39.0134 35.7158 39.058L34.5808 39.4475C34.6706 39.7091 34.8607 39.9211 35.1077 40.04L35.6285 38.9589ZM45.5144 43.7164L35.6283 38.9588L35.1079 40.0401L44.994 44.7977L45.5144 43.7164ZM45.3083 43.7865C45.3472 43.7095 45.4369 43.6791 45.5146 43.7165L44.9939 44.7976C45.5053 45.044 46.1234 44.8343 46.3794 44.3276L45.3083 43.7865ZM47.597 39.256L45.3083 43.7865L46.3794 44.3276L48.6681 39.7971L47.597 39.256ZM47.6109 39.4334C47.5787 39.3923 47.5623 39.3242 47.5976 39.2548L48.6675 39.7983C48.8563 39.4266 48.793 38.9969 48.556 38.694L47.6109 39.4334ZM46.8417 36.4495C46.6954 37.2934 46.892 38.0388 47.1116 38.5582C47.3301 39.0747 47.5874 39.4061 47.6248 39.4505L48.5421 38.6768C48.5699 38.7098 48.3815 38.4799 48.2169 38.0907C48.0534 37.7043 47.9296 37.1996 48.0241 36.6545L46.8417 36.4495ZM49.4313 33.158C48.004 34.0606 47.066 35.156 46.8417 36.4495L48.0241 36.6545C48.1669 35.8309 48.7899 34.9835 50.0727 34.1722L49.4313 33.158ZM49.3949 33.1902C49.4067 33.1762 49.4192 33.1656 49.4323 33.1574L50.0717 34.1728C50.1624 34.1157 50.2449 34.0442 50.3147 33.9608L49.3949 33.1902ZM48.3969 18.2743C51.3378 22.8283 51.5576 26.5636 51.0753 29.1397C50.5891 31.7364 49.3782 33.2101 49.3956 33.1894L50.314 33.9617C50.3838 33.8787 51.7193 32.2207 52.2548 29.3605C52.7941 26.4796 52.5108 22.4327 49.405 17.6233L48.3969 18.2743ZM43.2906 14.0793C46.7145 15.7884 48.3608 18.2208 48.403 18.2836L49.3989 17.6141C49.2973 17.463 47.5095 14.844 43.8266 13.0057L43.2906 14.0793ZM43.4086 14.0889C43.3736 14.1004 43.3308 14.0995 43.2894 14.0787L43.8278 13.0063C43.5788 12.8813 43.2926 12.8637 43.0334 12.9491L43.4086 14.0889ZM43.499 14.0104C43.4795 14.0492 43.4468 14.0763 43.4086 14.0889L43.0334 12.9491C42.7711 13.0354 42.5526 13.2226 42.4279 13.4694L43.499 14.0104ZM41.5177 17.9334L43.499 14.0104L42.4279 13.4694L40.4466 17.3924L41.5177 17.9334ZM41.4601 17.7131C41.5328 17.7635 41.5546 17.8606 41.5172 17.9344L40.4471 17.3914C40.2155 17.8478 40.3522 18.4052 40.7763 18.6992L41.4601 17.7131ZM44.0602 23.2359C44.5104 21.6368 43.7932 20.2257 43.0676 19.2853C42.3347 18.3355 41.5018 17.7416 41.4568 17.7108L40.7796 18.7015C40.766 18.6922 41.4891 19.2039 42.1175 20.0184C42.7532 20.8423 43.2026 21.8541 42.9051 22.9107L44.0602 23.2359ZM43.3205 24.725L44.0182 23.3439L42.9471 22.8028L42.2494 24.184L43.3205 24.725ZM34.0448 20.9057L42.5243 24.9949L43.0455 23.9141L34.5661 19.8248L34.0448 20.9057ZM32.0593 18.5162C32.8819 18.9395 33.4846 19.6693 33.7282 20.5288L34.8827 20.2016C34.5457 19.0123 33.7171 18.0198 32.6085 17.4492L32.0593 18.5162ZM14.7892 9.62967L32.0594 18.5162L32.6084 17.4492L15.3383 8.56265L14.7892 9.62967ZM13.0653 9.53516C13.5983 9.31439 14.2266 9.34062 14.7896 9.62985L15.3379 8.56248C14.4784 8.12084 13.4818 8.06377 12.6061 8.4265L13.0653 9.53516ZM10.6809 14.4918C10.3801 13.2969 10.4706 12.2797 10.8638 11.4668C11.2559 10.6562 11.9797 9.98502 13.0654 9.53512L12.606 8.42654C11.2972 8.96889 10.325 9.82491 9.78359 10.9442C9.24327 12.0612 9.16271 13.3766 9.51723 14.7848L10.6809 14.4918ZM10.7321 14.6647C10.7123 14.6062 10.6953 14.5495 10.6812 14.4929L9.51695 14.7836C9.54019 14.8767 9.56692 14.9652 9.59576 15.0502L10.7321 14.6647ZM11.8227 15.9243C11.3083 15.6645 10.9179 15.2122 10.7321 14.6647L9.59576 15.0502C9.88143 15.8923 10.4838 16.5925 11.2818 16.9954L11.8227 15.9243ZM29.1812 24.6726L11.8223 15.924L11.2822 16.9957L28.6412 25.7442L29.1812 24.6726ZM31.6949 24.8399C30.8899 25.1359 29.9928 25.081 29.1809 24.6725L28.6415 25.7444C29.737 26.2957 30.979 26.3817 32.1091 25.9662L31.6949 24.8399ZM40.6155 28.934L32.1624 24.8624L31.6416 25.9436L40.0948 30.0152L40.6155 28.934ZM40.801 33.0674C41.2086 32.2876 41.2725 31.4552 41.2248 30.7821C41.1769 30.1064 41.0135 29.5487 40.9236 29.2825L39.7868 29.6668C39.8574 29.8757 39.9896 30.3279 40.0278 30.867C40.0662 31.4087 40.0069 31.9962 39.7375 32.5116L40.801 33.0674ZM37.6492 35.2302C39.1126 34.8742 40.2236 34.1732 40.8011 33.0672L39.7374 32.5118C39.3737 33.2083 38.6256 33.7577 37.3656 34.0642L37.6492 35.2302ZM37.7517 35.1471C37.7287 35.193 37.69 35.2202 37.6506 35.2299L37.3642 34.0646C37.0715 34.1365 36.8178 34.3325 36.679 34.6092L37.7517 35.1471ZM35.7086 39.1916L37.7509 35.1487L36.6798 34.6076L34.6375 38.6505L35.7086 39.1916ZM32.049 24.9718C32.0462 24.9809 32.0427 24.9895 32.0387 24.9974L30.9676 24.4563C30.941 24.5089 30.9192 24.5633 30.9021 24.6186L32.049 24.9718ZM32.0387 24.9974C31.9998 25.0743 31.9101 25.1048 31.8324 25.0674L32.3532 23.9862C31.8417 23.7399 31.2236 23.9496 30.9676 24.4563L32.0387 24.9974ZM31.8324 25.0674L40.6453 29.3122L41.1661 28.2311L32.3532 23.9862L31.8324 25.0674ZM40.6473 29.3132C40.6097 29.2952 40.5791 29.2637 40.5623 29.2233L41.6701 28.7621C41.5727 28.5282 41.3921 28.339 41.1641 28.2302L40.6473 29.3132ZM40.5544 29.2033C40.5568 29.2098 40.5599 29.2178 40.5612 29.2211L41.68 28.7872C41.6789 28.7844 41.6783 28.7827 41.6778 28.7814C41.6772 28.7799 41.6774 28.7805 41.678 28.7821L40.5544 29.2033ZM40.5612 29.2211C40.5918 29.2999 40.7959 29.8243 40.8814 30.5375C40.9673 31.2546 40.9276 32.1134 40.5205 32.8959L41.5851 33.4497C42.1432 32.3769 42.1753 31.2491 42.0728 30.3947C41.9699 29.5363 41.7253 28.9041 41.68 28.7871L40.5612 29.2211ZM40.5205 32.896C40.0499 33.8008 39.1565 34.4781 37.7536 34.8566L38.0662 36.0152C39.6979 35.575 40.9192 34.7302 41.5851 33.4496L40.5205 32.896ZM37.3744 35.1654L35.6192 38.6397L36.6903 39.1808L38.4455 35.7065L37.3744 35.1654ZM35.8946 39.4509L44.9948 43.83L45.5151 42.7486L36.415 38.3696L35.8946 39.4509ZM45.7905 43.5598L47.7653 39.6497L46.6942 39.1087L44.7194 43.0188L45.7905 43.5598ZM47.7317 39.0505C47.4602 38.636 46.9612 37.6787 47.156 36.5281L45.9729 36.3278C45.7039 37.9164 46.3894 39.1911 46.7278 39.708L47.7317 39.0505ZM47.1559 36.5287C47.3393 35.4527 48.0881 34.4186 49.5446 33.483L48.8961 32.4734C47.2699 33.518 46.2324 34.8051 45.973 36.3271L47.1559 36.5287ZM49.6926 33.3483C49.9749 32.9881 51.1387 31.3708 51.517 28.7314C51.8974 26.0771 51.4742 22.4481 48.6661 18.0994L47.658 18.7504C50.3187 22.8707 50.6661 26.2102 50.3291 28.5612C49.9901 30.9272 48.9487 32.3521 48.748 32.6082L49.6926 33.3483ZM48.6552 18.0831L48.6543 18.0818L47.668 18.7654L47.6689 18.7667L48.6552 18.0831ZM48.6545 18.0821C48.5848 17.9814 46.9929 15.6899 43.8312 13.991L43.2633 15.0481C46.1887 16.62 47.6503 18.7398 47.6678 18.7651L48.6545 18.0821ZM43.0117 14.249L41.3931 17.4539L42.4642 17.9949L44.0828 14.79L43.0117 14.249ZM41.5502 18.19C41.9489 18.5141 42.6797 19.181 43.2141 20.0753C43.7444 20.9628 44.058 22.0303 43.7218 23.2108L44.8759 23.5395C45.3306 21.943 44.8841 20.5306 44.2441 19.4597C43.6082 18.3956 42.7584 17.6257 42.3071 17.2588L41.5502 18.19ZM43.7623 23.1066L42.8378 24.9535L43.9109 25.4906L44.8354 23.6437L43.7623 23.1066ZM42.8388 24.9515C42.8583 24.9129 42.8913 24.8859 42.9271 24.8737L43.3127 26.0101C43.5709 25.9225 43.786 25.7379 43.9099 25.4926L42.8388 24.9515ZM42.9271 24.8737C42.9629 24.8616 43.0056 24.8629 43.0446 24.8817L42.5238 25.9628C42.7715 26.0821 43.0544 26.0977 43.3127 26.0101L42.9271 24.8737ZM43.0448 24.8818L34.0486 20.5436L33.5274 21.6245L42.5236 25.9627L43.0448 24.8818ZM34.0484 20.5435C34.1013 20.569 34.1368 20.6211 34.1439 20.6777L32.953 20.8256C32.9946 21.1603 33.2011 21.4673 33.5276 21.6246L34.0484 20.5435ZM33.9076 20.271C33.994 20.3356 34.0601 20.4304 34.0877 20.543L32.9223 20.8291C32.9634 20.9963 33.0611 21.1365 33.1893 21.2323L33.9076 20.271ZM34.0865 20.5379C33.8324 19.5408 33.1534 18.7001 32.2261 18.2235L31.6775 19.2907C32.3067 19.6141 32.7565 20.1784 32.9236 20.8342L34.0865 20.5379ZM32.2263 18.2236L14.9562 9.33704L14.4072 10.4041L31.6773 19.2906L32.2263 18.2236ZM14.956 9.33693C14.3233 9.01168 13.5871 8.96256 12.9372 9.23193L13.3967 10.3405C13.6973 10.2159 14.065 10.2282 14.4074 10.4042L14.956 9.33693ZM12.9373 9.23189C12.1705 9.54957 11.3131 10.079 10.7516 10.9619C10.1778 11.8643 9.96434 13.0547 10.3477 14.5784L11.5114 14.2856C11.1944 13.0257 11.3961 12.1847 11.7642 11.6059C12.1447 11.0075 12.7562 10.6058 13.3966 10.3405L12.9373 9.23189ZM10.3479 14.5792C10.5279 15.2903 11.0043 15.8881 11.6571 16.2181L12.1984 15.1471C11.858 14.9751 11.6067 14.662 11.5112 14.2848L10.3479 14.5792ZM11.6577 16.2184L29.0165 24.9664L29.5566 23.8948L12.1978 15.1468L11.6577 16.2184ZM29.0171 24.9667C29.6353 25.2775 30.3118 25.4074 30.9708 25.3435L30.855 24.1491C30.4309 24.1902 29.9805 24.1079 29.556 23.8945L29.0171 24.9667ZM30.9708 25.3435C31.0897 25.332 31.2079 25.3426 31.3097 25.3718L31.6414 24.2186C31.3838 24.1445 31.1129 24.1241 30.855 24.1491L30.9708 25.3435Z" fill="#0089CF" mask="url(#path-2-outside-1_324_1597)"></path></svg> 