<svg xmlns="http://www.w3.org/2000/svg" width="30" height="30" fill="none" viewBox="0 0 30 30">
    <path fill="#7D8BA7" fill-rule="evenodd" d="M19.375 17.5h-.988l-.35-.337C19.264 15.738 20 13.887 20 11.875c0-4.487-3.637-8.125-8.125-8.125-4.487 0-8.125 3.638-8.125 8.125C3.75 16.363 7.388 20 11.875 20c2.012 0 3.863-.738 5.288-1.962l.337.35v.987l6.25 6.238 1.863-1.863-6.238-6.25zm-7.5 0c-3.113 0-5.625-2.512-5.625-5.625S8.762 6.25 11.875 6.25 17.5 8.762 17.5 11.875 14.988 17.5 11.875 17.5z" clip-rule="evenodd"/>
</svg>
