<?xml version="1.0" encoding="UTF-8"?> <svg xmlns="http://www.w3.org/2000/svg" width="60" height="60" viewBox="0 0 60 60" fill="none"><g id="Frame 1"><circle id="Ellipse 2" cx="30" cy="30" r="22" stroke="#0089CF" stroke-width="2" stroke-linecap="round"></circle><g id="Group 4"><path id="Ellipse 3" d="M24.3467 31.1429C23.8641 32.6438 23.5714 33.9887 23.5714 35C23.5714 39.9706 27.6008 44 32.5714 44C37.542 44 41.5714 39.9706 41.5714 35C41.5714 30.0294 34.5 17 32.5714 17C31.7216 17 29.8731 19.5301 28.0711 22.7857" stroke="#0089CF" stroke-width="2" stroke-linecap="round"></path><path id="Ellipse 4" d="M28.7143 26.4286C28.7143 29.0322 26.4117 31.1429 23.5714 31.1429C20.7311 31.1429 18.4286 29.0322 18.4286 26.4286C18.4286 23.8249 22.4694 17 23.5714 17C24.6735 17 28.7143 23.8249 28.7143 26.4286Z" stroke="#0089CF" stroke-width="2" stroke-linecap="round"></path><path id="Ellipse 6" d="M38.5 34C38.5 37 36.5 39.5 34 40.5" stroke="#0089CF" stroke-width="2" stroke-linecap="round"></path></g><path id="Vector 2" d="M46 15L14.5851 45.4332" stroke="#0089CF" stroke-width="2" stroke-linecap="round"></path><path id="Ellipse 7" d="M25.8 26C25.8 27.1046 24.9046 28 23.8 28" stroke="#0089CF" stroke-width="2" stroke-linecap="round"></path></g></svg> 