<?xml version="1.0" encoding="UTF-8"?> <svg xmlns="http://www.w3.org/2000/svg" width="60" height="60" viewBox="0 0 60 60" fill="none"><circle cx="30" cy="30" r="13.7143" stroke="#0089CF" stroke-width="2" stroke-linecap="round"></circle><path d="M29.9814 6L29.9814 12.5063" stroke="#0089CF" stroke-width="2" stroke-linecap="round"></path><path d="M33.0485 9.79001L30.1228 12.7157C30.0447 12.7938 29.9181 12.7938 29.84 12.7157L26.9143 9.79001" stroke="#0089CF" stroke-width="2" stroke-linecap="round"></path><path d="M30.0186 54L30.0186 47.4937" stroke="#0089CF" stroke-width="2" stroke-linecap="round"></path><path d="M26.9515 50.21L29.8772 47.2843C29.9553 47.2062 30.0819 47.2062 30.16 47.2843L33.0857 50.21" stroke="#0089CF" stroke-width="2" stroke-linecap="round"></path><path d="M54 29.9814H47.4937" stroke="#0089CF" stroke-width="2" stroke-linecap="round"></path><path d="M50.21 33.0486L47.2843 30.1229C47.2062 30.0448 47.2062 29.9181 47.2843 29.84L50.21 26.9143" stroke="#0089CF" stroke-width="2" stroke-linecap="round"></path><path d="M6 30.0186L12.5063 30.0186" stroke="#0089CF" stroke-width="2" stroke-linecap="round"></path><path d="M9.79004 26.9514L12.7157 29.8771C12.7938 29.9552 12.7938 30.0819 12.7157 30.16L9.79004 33.0857" stroke="#0089CF" stroke-width="2" stroke-linecap="round"></path></svg> 