<?xml version="1.0" encoding="UTF-8"?> <svg xmlns="http://www.w3.org/2000/svg" width="48" height="48" viewBox="0 0 48 48" fill="none"><path d="M24.0013 4V11.5211" stroke="#0089CF" stroke-width="2" stroke-miterlimit="10" stroke-linejoin="round"></path><path d="M10.087 9.8501L15.3914 14.9477" stroke="#0089CF" stroke-width="2" stroke-miterlimit="10" stroke-linejoin="round"></path><path d="M4 23.2203H11.8261" stroke="#0089CF" stroke-width="2" stroke-miterlimit="10" stroke-linejoin="round"></path><path d="M10.087 36.5913L15.3914 31.4937" stroke="#0089CF" stroke-width="2" stroke-miterlimit="10" stroke-linejoin="round"></path><path d="M37.9131 36.5913L32.6088 31.4937" stroke="#0089CF" stroke-width="2" stroke-miterlimit="10" stroke-linejoin="round"></path><path d="M43.9988 23.2203H36.1727" stroke="#0089CF" stroke-width="2" stroke-miterlimit="10" stroke-linejoin="round"></path><path d="M37.9131 9.8501L32.6088 14.9477" stroke="#0089CF" stroke-width="2" stroke-miterlimit="10" stroke-linejoin="round"></path><path d="M27.4767 41.605H26.6071L25.7375 42.4407H23.9984H22.2593L21.3897 41.605H20.5201" stroke="#0089CF" stroke-width="2" stroke-miterlimit="10" stroke-linejoin="round"></path><path d="M18.7814 36.5912H29.2162" stroke="#0089CF" stroke-width="2" stroke-miterlimit="10" stroke-linejoin="round"></path><path d="M19.6521 39.0986H28.3478" stroke="#0089CF" stroke-width="2" stroke-miterlimit="10" stroke-linejoin="round"></path><path d="M28.3479 34.9199V33.2486C28.3479 31.7444 28.8696 30.3237 30 29.2373C31.6522 27.6496 32.6957 25.644 32.6957 23.2205C32.6957 18.6243 28.7826 14.8638 24 14.8638C19.2174 14.8638 15.3044 18.6243 15.3044 23.2205C15.3044 25.644 16.3479 27.6496 18 29.2373C19.1305 30.3237 19.6522 31.6608 19.6522 33.2486V34.9199" stroke="#0089CF" stroke-width="2" stroke-miterlimit="10" stroke-linejoin="round"></path><path d="M17.9999 9.34833L19.3042 12.4403" stroke="#0089CF" stroke-width="2" stroke-miterlimit="10" stroke-linejoin="round"></path><path d="M9.56622 17.4541L12.7836 18.7076" stroke="#0089CF" stroke-width="2" stroke-miterlimit="10" stroke-linejoin="round"></path><path d="M9.56622 28.9867L12.7836 27.7332" stroke="#0089CF" stroke-width="2" stroke-miterlimit="10" stroke-linejoin="round"></path><path d="M38.4332 28.9867L35.2158 27.7332" stroke="#0089CF" stroke-width="2" stroke-miterlimit="10" stroke-linejoin="round"></path><path d="M38.4332 17.4541L35.2158 18.7076" stroke="#0089CF" stroke-width="2" stroke-miterlimit="10" stroke-linejoin="round"></path><path d="M30.0001 9.34833L28.6957 12.4403" stroke="#0089CF" stroke-width="2" stroke-miterlimit="10" stroke-linejoin="round"></path><path d="M21.3914 25.7275L24.0001 27.3988L26.6087 25.7275" stroke="#0089CF" stroke-width="2" stroke-miterlimit="10"></path><path d="M24.0013 27.3985V34.9196" stroke="#0089CF" stroke-width="2" stroke-miterlimit="10"></path></svg> 