<?xml version="1.0" encoding="UTF-8"?> <svg xmlns="http://www.w3.org/2000/svg" width="48" height="48" viewBox="0 0 48 48" fill="none"><mask id="path-1-outside-1_284_1079" maskUnits="userSpaceOnUse" x="3" y="3" width="42" height="42" fill="black"><rect fill="white" x="3" y="3" width="42" height="42"></rect><path d="M5.1288 24.8284V41.2053C5.1288 42.1287 5.88135 42.8775 6.81056 42.8775H40.013C40.9415 42.8775 41.6947 42.1287 41.6947 41.2053V24.8284H5.1288ZM40.013 43.8529H6.81056C5.33959 43.8529 4.14706 42.6677 4.14706 41.2053V24.3409C4.14706 24.0714 4.36705 23.8529 4.6376 23.8529H42.1859C42.4565 23.8529 42.6765 24.0714 42.6765 24.3409V41.2053C42.6765 42.6677 41.484 43.8529 40.013 43.8529Z"></path><path d="M16.3529 24.1471H15.3188L13.0043 17.1751C12.7282 16.3428 12.89 15.4259 13.4362 14.7225C14.4025 13.4784 14.6816 11.8382 14.1828 10.3358C13.745 9.01678 12.7475 7.96793 11.4863 7.45044L12.507 10.5261C12.5585 10.6818 12.5233 10.8533 12.4145 10.9757L10.4091 13.2335C10.3003 13.3559 10.135 13.411 9.97521 13.3783L7.01988 12.773C6.85908 12.7403 6.72846 12.6243 6.677 12.4687L5.65577 9.39251C4.95467 10.5638 4.78298 12.0023 5.22086 13.3217C5.71762 14.8187 6.91697 15.9621 8.42902 16.3802C9.29439 16.619 9.97719 17.2626 10.2553 18.1017L12.2621 24.1471H11.228L9.32408 18.4117C9.14942 17.8845 8.71748 17.4792 8.16877 17.3278C6.34006 16.8222 4.88936 15.4403 4.28968 13.6315C3.64548 11.691 4.09325 9.53724 5.45835 8.01204L5.49546 7.96991C5.73048 7.7077 6.16045 7.79742 6.27128 8.1315L7.51219 11.8709L9.87626 12.3547L11.4803 10.5489L10.2394 6.80953C10.1281 6.47544 10.419 6.14581 10.7639 6.21521L10.8188 6.22612C12.8242 6.6291 14.4698 8.0854 15.114 10.0255C15.7162 11.8407 15.3787 13.8219 14.2105 15.3263C13.8662 15.7698 13.7628 16.3451 13.9354 16.8651L16.3529 24.1471Z"></path><path d="M43.9956 15.5784L43.993 15.6564C43.9803 16.0616 43.4873 16.2519 43.2068 15.9597L43.1524 15.9038C42.3131 15.0301 41.6193 14.4541 40.5581 14.0945C40.0644 13.9271 39.386 13.9438 38.7434 14.139C38.1726 14.3124 37.7287 14.6035 37.6057 14.8832L34.4321 24.1471H33.3955L36.6887 14.5355L36.6947 14.5224C36.9273 13.9519 37.5705 13.4698 38.4583 13.1999C39.3022 12.9437 40.1814 12.9309 40.8724 13.1649C41.7097 13.4485 42.3549 13.8485 42.9676 14.371C42.6845 11.8979 41.2625 9.87308 39.1474 9.0468C37.2223 8.29444 36.0774 8.37357 35.2414 8.43179C34.7185 8.46779 34.2673 8.4992 33.8141 8.32226C33.1569 8.0658 32.6878 7.70007 32.5622 6.8113L30.9089 6.16555L29.3991 10.0409L31.0983 10.7046C31.7402 10.3157 32.3761 10.2404 32.9921 10.4809C33.648 10.7367 34.2473 11.2486 34.6381 11.8855C35.0534 12.5634 35.167 13.278 34.9511 13.8469L34.9431 13.8666L30.5241 24.1471H29.4576L34.038 13.4897C34.1377 13.2156 34.0473 12.7988 33.8028 12.3988C33.5257 11.9473 33.0904 11.5722 32.6366 11.3952C32.3841 11.2967 32.0199 11.2365 31.4418 11.6526L31.4272 11.6631C31.3016 11.7534 31.1388 11.774 30.9946 11.7176L28.5559 10.7648C28.3206 10.6729 28.2044 10.4073 28.2961 10.1717L30.1866 5.32096C30.2783 5.0854 30.5434 4.96894 30.7786 5.06084L33.2207 6.01502C33.3888 6.0809 33.5024 6.24008 33.5111 6.42101L33.5117 6.44231C33.5416 7.09884 33.725 7.23459 34.1696 7.40794C34.4181 7.5051 34.7351 7.48313 35.1737 7.45272C36.0501 7.3919 37.3738 7.30034 39.5036 8.13248C42.337 9.23978 44.0999 12.1626 43.9956 15.5784Z"></path><path d="M26.6471 22.8499V23.7724C26.6471 23.8998 26.6314 24.0257 26.6013 24.1471H25.5278C25.616 24.0426 25.6652 23.9099 25.6652 23.7724V22.8499C25.6652 22.5265 25.4016 22.2645 25.0776 22.2645H24.2471C24.003 22.2645 23.802 22.0736 23.7891 21.8303L23.1848 9.87872C23.1809 9.8076 23.1926 9.73658 23.2194 9.67053L23.8869 8.023L23.1893 4.97971H22.28L21.5852 8.01744L22.2699 9.66613C22.2984 9.73352 22.3107 9.80626 22.3068 9.87906L21.6852 21.831C21.6729 22.074 21.4713 22.2645 21.2272 22.2645H20.4224C20.099 22.2645 19.8354 22.527 19.8354 22.8499V23.7724C19.8354 23.9112 19.8834 24.0422 19.9722 24.1471H18.8982C18.868 24.0261 18.8529 23.9004 18.8529 23.7724V22.8499C18.8529 21.9856 19.5556 21.2848 20.4224 21.2848H20.7301L21.3199 9.93893L20.6173 8.24802C20.5782 8.15445 20.5693 8.0503 20.5922 7.95171L21.4154 4.35535C21.4629 4.1476 21.6483 4 21.8622 4H23.6065C23.8204 4 24.0058 4.14704 24.0533 4.35479L24.8793 7.9545C24.9017 8.05197 24.8933 8.15445 24.8559 8.24691L24.1711 9.93726L24.7453 21.2848H25.0776C25.9444 21.2848 26.6471 21.9856 26.6471 22.8499Z"></path><path d="M20.119 28.9832C19.4645 28.9832 18.9316 29.5515 18.9316 30.2502C18.9316 30.9488 19.4645 31.5172 20.119 31.5172H27.881C28.5359 31.5172 29.0684 30.9488 29.0684 30.2502C29.0684 29.5515 28.5359 28.9832 27.881 28.9832H20.119ZM27.881 32.3333H20.119C19.0425 32.3333 18.1667 31.3989 18.1667 30.2502C18.1667 29.1015 19.0425 28.1667 20.119 28.1667H27.881C28.9575 28.1667 29.8333 29.1015 29.8333 30.2502C29.8333 31.3989 28.9575 32.3333 27.881 32.3333Z"></path></mask><path d="M5.1288 24.8284V41.2053C5.1288 42.1287 5.88135 42.8775 6.81056 42.8775H40.013C40.9415 42.8775 41.6947 42.1287 41.6947 41.2053V24.8284H5.1288ZM40.013 43.8529H6.81056C5.33959 43.8529 4.14706 42.6677 4.14706 41.2053V24.3409C4.14706 24.0714 4.36705 23.8529 4.6376 23.8529H42.1859C42.4565 23.8529 42.6765 24.0714 42.6765 24.3409V41.2053C42.6765 42.6677 41.484 43.8529 40.013 43.8529Z" fill="#0089CF"></path><path d="M16.3529 24.1471H15.3188L13.0043 17.1751C12.7282 16.3428 12.89 15.4259 13.4362 14.7225C14.4025 13.4784 14.6816 11.8382 14.1828 10.3358C13.745 9.01678 12.7475 7.96793 11.4863 7.45044L12.507 10.5261C12.5585 10.6818 12.5233 10.8533 12.4145 10.9757L10.4091 13.2335C10.3003 13.3559 10.135 13.411 9.97521 13.3783L7.01988 12.773C6.85908 12.7403 6.72846 12.6243 6.677 12.4687L5.65577 9.39251C4.95467 10.5638 4.78298 12.0023 5.22086 13.3217C5.71762 14.8187 6.91697 15.9621 8.42902 16.3802C9.29439 16.619 9.97719 17.2626 10.2553 18.1017L12.2621 24.1471H11.228L9.32408 18.4117C9.14942 17.8845 8.71748 17.4792 8.16877 17.3278C6.34006 16.8222 4.88936 15.4403 4.28968 13.6315C3.64548 11.691 4.09325 9.53724 5.45835 8.01204L5.49546 7.96991C5.73048 7.7077 6.16045 7.79742 6.27128 8.1315L7.51219 11.8709L9.87626 12.3547L11.4803 10.5489L10.2394 6.80953C10.1281 6.47544 10.419 6.14581 10.7639 6.21521L10.8188 6.22612C12.8242 6.6291 14.4698 8.0854 15.114 10.0255C15.7162 11.8407 15.3787 13.8219 14.2105 15.3263C13.8662 15.7698 13.7628 16.3451 13.9354 16.8651L16.3529 24.1471Z" fill="#0089CF"></path><path d="M43.9956 15.5784L43.993 15.6564C43.9803 16.0616 43.4873 16.2519 43.2068 15.9597L43.1524 15.9038C42.3131 15.0301 41.6193 14.4541 40.5581 14.0945C40.0644 13.9271 39.386 13.9438 38.7434 14.139C38.1726 14.3124 37.7287 14.6035 37.6057 14.8832L34.4321 24.1471H33.3955L36.6887 14.5355L36.6947 14.5224C36.9273 13.9519 37.5705 13.4698 38.4583 13.1999C39.3022 12.9437 40.1814 12.9309 40.8724 13.1649C41.7097 13.4485 42.3549 13.8485 42.9676 14.371C42.6845 11.8979 41.2625 9.87308 39.1474 9.0468C37.2223 8.29444 36.0774 8.37357 35.2414 8.43179C34.7185 8.46779 34.2673 8.4992 33.8141 8.32226C33.1569 8.0658 32.6878 7.70007 32.5622 6.8113L30.9089 6.16555L29.3991 10.0409L31.0983 10.7046C31.7402 10.3157 32.3761 10.2404 32.9921 10.4809C33.648 10.7367 34.2473 11.2486 34.6381 11.8855C35.0534 12.5634 35.167 13.278 34.9511 13.8469L34.9431 13.8666L30.5241 24.1471H29.4576L34.038 13.4897C34.1377 13.2156 34.0473 12.7988 33.8028 12.3988C33.5257 11.9473 33.0904 11.5722 32.6366 11.3952C32.3841 11.2967 32.0199 11.2365 31.4418 11.6526L31.4272 11.6631C31.3016 11.7534 31.1388 11.774 30.9946 11.7176L28.5559 10.7648C28.3206 10.6729 28.2044 10.4073 28.2961 10.1717L30.1866 5.32096C30.2783 5.0854 30.5434 4.96894 30.7786 5.06084L33.2207 6.01502C33.3888 6.0809 33.5024 6.24008 33.5111 6.42101L33.5117 6.44231C33.5416 7.09884 33.725 7.23459 34.1696 7.40794C34.4181 7.5051 34.7351 7.48313 35.1737 7.45272C36.0501 7.3919 37.3738 7.30034 39.5036 8.13248C42.337 9.23978 44.0999 12.1626 43.9956 15.5784Z" fill="#0089CF"></path><path d="M26.6471 22.8499V23.7724C26.6471 23.8998 26.6314 24.0257 26.6013 24.1471H25.5278C25.616 24.0426 25.6652 23.9099 25.6652 23.7724V22.8499C25.6652 22.5265 25.4016 22.2645 25.0776 22.2645H24.2471C24.003 22.2645 23.802 22.0736 23.7891 21.8303L23.1848 9.87872C23.1809 9.8076 23.1926 9.73658 23.2194 9.67053L23.8869 8.023L23.1893 4.97971H22.28L21.5852 8.01744L22.2699 9.66613C22.2984 9.73352 22.3107 9.80626 22.3068 9.87906L21.6852 21.831C21.6729 22.074 21.4713 22.2645 21.2272 22.2645H20.4224C20.099 22.2645 19.8354 22.527 19.8354 22.8499V23.7724C19.8354 23.9112 19.8834 24.0422 19.9722 24.1471H18.8982C18.868 24.0261 18.8529 23.9004 18.8529 23.7724V22.8499C18.8529 21.9856 19.5556 21.2848 20.4224 21.2848H20.7301L21.3199 9.93893L20.6173 8.24802C20.5782 8.15445 20.5693 8.0503 20.5922 7.95171L21.4154 4.35535C21.4629 4.1476 21.6483 4 21.8622 4H23.6065C23.8204 4 24.0058 4.14704 24.0533 4.35479L24.8793 7.9545C24.9017 8.05197 24.8933 8.15445 24.8559 8.24691L24.1711 9.93726L24.7453 21.2848H25.0776C25.9444 21.2848 26.6471 21.9856 26.6471 22.8499Z" fill="#0089CF"></path><path d="M20.119 28.9832C19.4645 28.9832 18.9316 29.5515 18.9316 30.2502C18.9316 30.9488 19.4645 31.5172 20.119 31.5172H27.881C28.5359 31.5172 29.0684 30.9488 29.0684 30.2502C29.0684 29.5515 28.5359 28.9832 27.881 28.9832H20.119ZM27.881 32.3333H20.119C19.0425 32.3333 18.1667 31.3989 18.1667 30.2502C18.1667 29.1015 19.0425 28.1667 20.119 28.1667H27.881C28.9575 28.1667 29.8333 29.1015 29.8333 30.2502C29.8333 31.3989 28.9575 32.3333 27.881 32.3333Z" fill="#0089CF"></path><path d="M5.1288 24.8284V41.2053C5.1288 42.1287 5.88135 42.8775 6.81056 42.8775H40.013C40.9415 42.8775 41.6947 42.1287 41.6947 41.2053V24.8284H5.1288ZM40.013 43.8529H6.81056C5.33959 43.8529 4.14706 42.6677 4.14706 41.2053V24.3409C4.14706 24.0714 4.36705 23.8529 4.6376 23.8529H42.1859C42.4565 23.8529 42.6765 24.0714 42.6765 24.3409V41.2053C42.6765 42.6677 41.484 43.8529 40.013 43.8529Z" stroke="#0089CF" stroke-width="0.666667" mask="url(#path-1-outside-1_284_1079)"></path><path d="M16.3529 24.1471H15.3188L13.0043 17.1751C12.7282 16.3428 12.89 15.4259 13.4362 14.7225C14.4025 13.4784 14.6816 11.8382 14.1828 10.3358C13.745 9.01678 12.7475 7.96793 11.4863 7.45044L12.507 10.5261C12.5585 10.6818 12.5233 10.8533 12.4145 10.9757L10.4091 13.2335C10.3003 13.3559 10.135 13.411 9.97521 13.3783L7.01988 12.773C6.85908 12.7403 6.72846 12.6243 6.677 12.4687L5.65577 9.39251C4.95467 10.5638 4.78298 12.0023 5.22086 13.3217C5.71762 14.8187 6.91697 15.9621 8.42902 16.3802C9.29439 16.619 9.97719 17.2626 10.2553 18.1017L12.2621 24.1471H11.228L9.32408 18.4117C9.14942 17.8845 8.71748 17.4792 8.16877 17.3278C6.34006 16.8222 4.88936 15.4403 4.28968 13.6315C3.64548 11.691 4.09325 9.53724 5.45835 8.01204L5.49546 7.96991C5.73048 7.7077 6.16045 7.79742 6.27128 8.1315L7.51219 11.8709L9.87626 12.3547L11.4803 10.5489L10.2394 6.80953C10.1281 6.47544 10.419 6.14581 10.7639 6.21521L10.8188 6.22612C12.8242 6.6291 14.4698 8.0854 15.114 10.0255C15.7162 11.8407 15.3787 13.8219 14.2105 15.3263C13.8662 15.7698 13.7628 16.3451 13.9354 16.8651L16.3529 24.1471Z" stroke="#0089CF" stroke-width="0.666667" mask="url(#path-1-outside-1_284_1079)"></path><path d="M43.9956 15.5784L43.993 15.6564C43.9803 16.0616 43.4873 16.2519 43.2068 15.9597L43.1524 15.9038C42.3131 15.0301 41.6193 14.4541 40.5581 14.0945C40.0644 13.9271 39.386 13.9438 38.7434 14.139C38.1726 14.3124 37.7287 14.6035 37.6057 14.8832L34.4321 24.1471H33.3955L36.6887 14.5355L36.6947 14.5224C36.9273 13.9519 37.5705 13.4698 38.4583 13.1999C39.3022 12.9437 40.1814 12.9309 40.8724 13.1649C41.7097 13.4485 42.3549 13.8485 42.9676 14.371C42.6845 11.8979 41.2625 9.87308 39.1474 9.0468C37.2223 8.29444 36.0774 8.37357 35.2414 8.43179C34.7185 8.46779 34.2673 8.4992 33.8141 8.32226C33.1569 8.0658 32.6878 7.70007 32.5622 6.8113L30.9089 6.16555L29.3991 10.0409L31.0983 10.7046C31.7402 10.3157 32.3761 10.2404 32.9921 10.4809C33.648 10.7367 34.2473 11.2486 34.6381 11.8855C35.0534 12.5634 35.167 13.278 34.9511 13.8469L34.9431 13.8666L30.5241 24.1471H29.4576L34.038 13.4897C34.1377 13.2156 34.0473 12.7988 33.8028 12.3988C33.5257 11.9473 33.0904 11.5722 32.6366 11.3952C32.3841 11.2967 32.0199 11.2365 31.4418 11.6526L31.4272 11.6631C31.3016 11.7534 31.1388 11.774 30.9946 11.7176L28.5559 10.7648C28.3206 10.6729 28.2044 10.4073 28.2961 10.1717L30.1866 5.32096C30.2783 5.0854 30.5434 4.96894 30.7786 5.06084L33.2207 6.01502C33.3888 6.0809 33.5024 6.24008 33.5111 6.42101L33.5117 6.44231C33.5416 7.09884 33.725 7.23459 34.1696 7.40794C34.4181 7.5051 34.7351 7.48313 35.1737 7.45272C36.0501 7.3919 37.3738 7.30034 39.5036 8.13248C42.337 9.23978 44.0999 12.1626 43.9956 15.5784Z" stroke="#0089CF" stroke-width="0.666667" mask="url(#path-1-outside-1_284_1079)"></path><path d="M26.6471 22.8499V23.7724C26.6471 23.8998 26.6314 24.0257 26.6013 24.1471H25.5278C25.616 24.0426 25.6652 23.9099 25.6652 23.7724V22.8499C25.6652 22.5265 25.4016 22.2645 25.0776 22.2645H24.2471C24.003 22.2645 23.802 22.0736 23.7891 21.8303L23.1848 9.87872C23.1809 9.8076 23.1926 9.73658 23.2194 9.67053L23.8869 8.023L23.1893 4.97971H22.28L21.5852 8.01744L22.2699 9.66613C22.2984 9.73352 22.3107 9.80626 22.3068 9.87906L21.6852 21.831C21.6729 22.074 21.4713 22.2645 21.2272 22.2645H20.4224C20.099 22.2645 19.8354 22.527 19.8354 22.8499V23.7724C19.8354 23.9112 19.8834 24.0422 19.9722 24.1471H18.8982C18.868 24.0261 18.8529 23.9004 18.8529 23.7724V22.8499C18.8529 21.9856 19.5556 21.2848 20.4224 21.2848H20.7301L21.3199 9.93893L20.6173 8.24802C20.5782 8.15445 20.5693 8.0503 20.5922 7.95171L21.4154 4.35535C21.4629 4.1476 21.6483 4 21.8622 4H23.6065C23.8204 4 24.0058 4.14704 24.0533 4.35479L24.8793 7.9545C24.9017 8.05197 24.8933 8.15445 24.8559 8.24691L24.1711 9.93726L24.7453 21.2848H25.0776C25.9444 21.2848 26.6471 21.9856 26.6471 22.8499Z" stroke="#0089CF" stroke-width="0.666667" mask="url(#path-1-outside-1_284_1079)"></path><path d="M20.119 28.9832C19.4645 28.9832 18.9316 29.5515 18.9316 30.2502C18.9316 30.9488 19.4645 31.5172 20.119 31.5172H27.881C28.5359 31.5172 29.0684 30.9488 29.0684 30.2502C29.0684 29.5515 28.5359 28.9832 27.881 28.9832H20.119ZM27.881 32.3333H20.119C19.0425 32.3333 18.1667 31.3989 18.1667 30.2502C18.1667 29.1015 19.0425 28.1667 20.119 28.1667H27.881C28.9575 28.1667 29.8333 29.1015 29.8333 30.2502C29.8333 31.3989 28.9575 32.3333 27.881 32.3333Z" stroke="#0089CF" stroke-width="0.666667" mask="url(#path-1-outside-1_284_1079)"></path></svg> 