<?xml version="1.0" encoding="UTF-8"?> <svg xmlns="http://www.w3.org/2000/svg" width="60" height="60" viewBox="0 0 60 60" fill="none"><g id="Frame 3"><g id="Group 10"><path id="Union" d="M21.2628 45.4128L22.0116 44.75H22.0116L21.2628 45.4128ZM29.0013 54.1542L29.75 53.4914L29.0013 54.1542ZM30.4988 54.1542L29.75 53.4914H29.75L30.4988 54.1542ZM38.2372 45.4128L38.986 46.0757H38.986L38.2372 45.4128ZM27.25 6V6V4C26.1454 4 25.25 4.89543 25.25 6H27.25ZM27.25 43.55V6H25.25V43.55H27.25ZM22.0115 44.75H26.05V42.75H22.0115V44.75ZM22.0116 44.75H22.0115V42.75C20.2878 42.75 19.3714 44.785 20.514 46.0757L22.0116 44.75ZM29.75 53.4914L22.0116 44.75L20.514 46.0757L28.2525 54.8171L29.75 53.4914ZM29.75 53.4914L28.2525 54.8171C29.0484 55.7161 30.4516 55.7161 31.2475 54.8171L29.75 53.4914ZM37.4885 44.75L29.75 53.4914L31.2475 54.8171L38.986 46.0757L37.4885 44.75ZM37.4885 44.75L38.986 46.0757C40.1286 44.785 39.2123 42.75 37.4885 42.75V44.75ZM33.45 44.75H37.4885V42.75H33.45V44.75ZM32.25 6V43.55H34.25V6H32.25ZM32.25 6H34.25C34.25 4.89543 33.3546 4 32.25 4V6ZM27.25 6H32.25V4H27.25V6ZM33.45 42.75C33.8918 42.75 34.25 43.1082 34.25 43.55H32.25C32.25 44.2127 32.7873 44.75 33.45 44.75V42.75ZM25.25 43.55C25.25 43.1082 25.6082 42.75 26.05 42.75V44.75C26.7128 44.75 27.25 44.2127 27.25 43.55H25.25Z" fill="#0089CF"></path><g id="Group 8"><path id="Rectangle 4" d="M33.25 25.8772L33.25 30.1228C33.25 31.7797 34.5932 33.1228 36.25 33.1228L45.05 33.1228C45.1605 33.1228 45.25 33.2123 45.25 33.3228L45.25 35.5M33.25 18L33.25 23.1228C33.25 24.7797 34.5931 26.1228 36.25 26.1228L38.75 26.1228L45.05 26.1228C45.1605 26.1228 45.25 26.0333 45.25 25.9228L45.25 24.5" stroke="#0089CF" stroke-width="2" stroke-linecap="round"></path><path id="Polygon 1" d="M45.25 24.6432L45.25 21.8844C45.25 21.0225 46.2675 20.5643 46.9129 21.1356L55.6542 28.8741C56.1038 29.2721 56.1038 29.9737 55.6542 30.3716L46.9129 38.1101C46.2675 38.6814 45.25 38.2232 45.25 37.3613L45.25 34.6025L45.25 33.3576" stroke="#0089CF" stroke-width="2" stroke-linecap="round"></path></g><g id="Group 9"><path id="Rectangle 4_2" d="M26.25 25.8772L26.25 30.1228C26.25 31.7797 24.9069 33.1228 23.25 33.1228L14.45 33.1228C14.3395 33.1228 14.25 33.2123 14.25 33.3228L14.25 35.5M26.25 18L26.25 23.1228C26.25 24.7797 24.9069 26.1228 23.25 26.1228L20.75 26.1228L14.45 26.1228C14.3395 26.1228 14.25 26.0333 14.25 25.9228L14.25 24.5" stroke="#0089CF" stroke-width="2" stroke-linecap="round"></path><path id="Polygon 1_2" d="M14.25 24.6432L14.25 21.8844C14.25 21.0225 13.2325 20.5643 12.5871 21.1356L3.84579 28.8741C3.39626 29.2721 3.39626 29.9737 3.84579 30.3716L12.5871 38.1101C13.2325 38.6814 14.25 38.2232 14.25 37.3613L14.25 34.6025L14.25 33.3576" stroke="#0089CF" stroke-width="2" stroke-linecap="round"></path></g></g></g></svg> 