<?xml version="1.0" encoding="UTF-8"?> <svg xmlns="http://www.w3.org/2000/svg" width="60" height="60" viewBox="0 0 60 60" fill="none"><g id="Frame 1"><g id="Group 5"><path id="Vector 3" d="M25.3899 28.1825L21.3714 24.164C21.2965 24.0891 21.1756 24.0857 21.0983 24.158C17.9968 27.0579 17.7975 32.1514 18.0927 34.3653C19.3751 42.0598 26.351 46.2298 30.5088 47.2621C30.8641 47.3504 31.1233 47.6616 31.1233 48.0277C31.1233 48.4299 30.8098 48.764 30.4077 48.7728C22.9315 48.9368 14.3864 44.8561 10.9034 35.7133C8.07611 28.2917 12.5453 21.1308 15.2587 18.3295C15.3356 18.2502 15.3334 18.126 15.2553 18.0479L11.2448 14.0374C11.1188 13.9114 11.208 13.696 11.3862 13.696H25.5313C25.6418 13.696 25.7313 13.7855 25.7313 13.896V28.0411C25.7313 28.2193 25.5159 28.3085 25.3899 28.1825Z" stroke="#0089CF" stroke-width="2" stroke-linecap="round"></path><path id="Vector 4" d="M34.6101 31.595L38.6286 35.6135C38.7035 35.6884 38.8244 35.6918 38.9017 35.6195C42.0032 32.7197 42.2025 27.6261 41.9073 25.4122C40.6249 17.7177 33.649 13.5477 29.4912 12.5154C29.1359 12.4272 28.8767 12.1159 28.8767 11.7498C28.8767 11.3476 29.1902 11.0136 29.5923 11.0048C37.0685 10.8407 45.6136 14.9214 49.0966 24.0642C51.9239 31.4858 47.4547 38.6467 44.7413 41.448C44.6644 41.5273 44.6666 41.6515 44.7447 41.7296L48.7552 45.7401C48.8812 45.8661 48.792 46.0815 48.6138 46.0815L34.4687 46.0815C34.3582 46.0815 34.2687 45.992 34.2687 45.8815L34.2687 31.7364C34.2687 31.5582 34.4841 31.469 34.6101 31.595Z" stroke="#0089CF" stroke-width="2" stroke-linecap="round"></path></g></g></svg> 