<svg width="36" height="36" viewBox="0 0 36 36" fill="none" xmlns="http://www.w3.org/2000/svg">
<circle cx="18" cy="18" r="18" fill="white"/>
<path fill-rule="evenodd" clip-rule="evenodd" d="M17.2894 15.8743C17.9719 15.4593 18.7446 15.2359 19.476 15.2359H20.8887C22.8579 15.2359 25.1267 16.8557 25.1267 19.4718V25.1196H22.3014V19.4718C22.3014 18.6588 21.4623 18.0598 20.8887 18.0598H19.476C18.9024 18.0598 18.0634 18.6588 18.0634 19.4718V25.1196H15.238V15.2359H16.6507L17.2894 15.8743ZM12.4127 13.8239C11.6325 13.8239 11 13.1918 11 12.412C11 11.6322 11.6325 11 12.4127 11C13.1929 11 13.8253 11.6322 13.8253 12.412C13.8253 13.1918 13.1929 13.8239 12.4127 13.8239ZM13.8253 25.1196H11V15.2359H13.8253V25.1196Z" fill="#5E5E5E"/>
</svg>
